<?xml version="1.0" encoding="iso-8859-1"?>
<!-- Generator: Adobe Illustrator 19.0.0, SVG Export Plug-In . SVG Version: 6.00 Build 0)  -->
<svg xmlns="http://www.w3.org/2000/svg" xmlns:xlink="http://www.w3.org/1999/xlink" version="1.1" id="Capa_1" x="0px" y="0px" viewBox="0 0 60.02 60.02" style="enable-background:new 0 0 60.02 60.02;" xml:space="preserve" width="512px" height="512px">
	<path d="M59.766,15.896l-0.363-0.386h-1.837l0.409-3.34c0.043-0.424-0.097-0.848-0.382-1.163c-0.286-0.315-0.694-0.497-1.12-0.497   h-2.437V7c0-0.821-0.669-1.49-1.491-1.49h-2.509V2c0-0.821-0.669-1.49-1.491-1.49H11.526c-0.821,0-1.49,0.669-1.49,1.49v3.51h-2.51   c-0.821,0-1.49,0.669-1.49,1.49v3.51H3.599c-0.426,0-0.834,0.182-1.12,0.497c-0.285,0.315-0.425,0.739-0.379,1.185l0.406,3.318   h-1.37c-0.321,0-0.623,0.141-0.83,0.386L0,16.306l5.959,41.856c0.138,0.781,0.813,1.348,1.605,1.348h44.942   c0.791,0,1.467-0.565,1.611-1.38l5.886-41.352C60.059,16.462,59.972,16.141,59.766,15.896z M12.036,2.51h36v3h-36V2.51z    M8.036,7.51h2h40h2v3h-44V7.51z M4.153,12.51h1.883h48h1.882l-0.367,3H4.521L4.153,12.51z M52.187,57.51H7.886l-5.695-40h0.561   H57.32h0.56L52.187,57.51z" fill="#474283"/>
	<path d="M29.536,20.51c-11.304,0-20.5,7.626-20.5,17s9.196,17,20.5,17s20.5-7.626,20.5-17S40.84,20.51,29.536,20.51z M29.536,52.51   c-10.201,0-18.5-6.729-18.5-15s8.299-15,18.5-15s18.5,6.729,18.5,15S39.737,52.51,29.536,52.51z" fill="#474283"/>
	<path d="M30.536,25.449c0-0.553-0.447-1-1-1c-3.993,0-7.778,1.21-10.946,3.499c-0.447,0.323-0.548,0.948-0.225,1.396   c0.195,0.271,0.501,0.414,0.812,0.414c0.203,0,0.407-0.062,0.585-0.189c2.824-2.041,6.204-3.12,9.774-3.12   C30.089,26.449,30.536,26.002,30.536,25.449z" fill="#474283"/>
	<path d="M30.536,29.2c0-0.553-0.447-1-1-1c-3.105,0-6.049,0.941-8.512,2.723c-0.447,0.324-0.548,0.949-0.225,1.396   c0.196,0.271,0.501,0.414,0.812,0.414c0.203,0,0.408-0.062,0.585-0.189c2.12-1.533,4.658-2.344,7.34-2.344   C30.089,30.2,30.536,29.753,30.536,29.2z" fill="#474283"/>
	<path d="M30.536,32.95c0-0.553-0.447-1-1-1c-2.229,0-4.339,0.68-6.104,1.967c-0.446,0.325-0.545,0.95-0.219,1.396   c0.195,0.269,0.5,0.411,0.809,0.411c0.204,0,0.41-0.063,0.588-0.192c1.42-1.035,3.124-1.582,4.926-1.582   C30.089,33.95,30.536,33.503,30.536,32.95z" fill="#474283"/>
	<path d="M39.4,45.638c-2.824,2.042-6.204,3.121-9.774,3.121c-0.553,0-1,0.447-1,1s0.447,1,1,1c3.994,0,7.779-1.21,10.946-3.5   c0.447-0.324,0.548-0.949,0.225-1.396C40.474,45.414,39.847,45.314,39.4,45.638z" fill="#474283"/>
	<path d="M28.626,46.008c0,0.553,0.447,1,1,1c3.106,0,6.05-0.942,8.512-2.724c0.448-0.324,0.548-0.949,0.225-1.396   c-0.325-0.448-0.95-0.548-1.396-0.225c-2.119,1.534-4.657,2.345-7.34,2.345C29.073,45.008,28.626,45.455,28.626,46.008z" fill="#474283"/>
	<path d="M28.626,42.257c0,0.553,0.447,1,1,1c2.23,0,4.341-0.68,6.104-1.967c0.445-0.325,0.544-0.951,0.218-1.397   c-0.324-0.444-0.949-0.544-1.397-0.218c-1.418,1.035-3.121,1.582-4.925,1.582C29.073,41.257,28.626,41.704,28.626,42.257z" fill="#474283"/>
	<ellipse cx="29.932" cy="37.494" rx="2.327" ry="1.689" fill="#474283"/>
</svg>
