<?xml version="1.0" encoding="utf-8"?>
<!-- Generator: Adobe Illustrator 18.0.0, SVG Export Plug-In . SVG Version: 6.00 Build 0)  -->
<!DOCTYPE svg PUBLIC "-//W3C//DTD SVG 1.1//EN" "http://www.w3.org/Graphics/SVG/1.1/DTD/svg11.dtd">
<svg width="24" height="24" viewBox="0 0 24 24" version="1.1" xmlns="http://www.w3.org/2000/svg" xmlns:xlink="http://www.w3.org/1999/xlink"><g fill="#657786"><path d="M22.46 7.57L12.357 2.115a.751.751 0 0 0-.713 0L1.543 7.57a.75.75 0 0 0 .713 1.32l.815-.44L4.7 19.963c.214 1.215 1.308 2.062 2.658 2.062h9.282c1.352 0 2.445-.848 2.663-2.087l1.626-11.49.818.442c.364.193.82.06 1.017-.304a.752.752 0 0 0-.304-1.016zm-4.638 12.133c-.107.606-.703.822-1.18.822H7.36c-.48 0-1.075-.216-1.178-.798L4.48 7.69 12 3.628l7.522 4.06-1.7 12.015z"></path><path d="M8.22 12.184c0 2.084 1.695 3.78 3.78 3.78s3.78-1.696 3.78-3.78-1.695-3.78-3.78-3.78-3.78 1.696-3.78 3.78zm6.06 0c0 1.258-1.022 2.28-2.28 2.28s-2.28-1.022-2.28-2.28 1.022-2.28 2.28-2.28 2.28 1.022 2.28 2.28z"></path></g></svg>