<?xml version="1.0" encoding="utf-8"?>
<!-- Generator: Adobe Illustrator 18.0.0, SVG Export Plug-In . SVG Version: 6.00 Build 0)  -->
<!DOCTYPE svg PUBLIC "-//W3C//DTD SVG 1.1//EN" "http://www.w3.org/Graphics/SVG/1.1/DTD/svg11.dtd">
<svg width="24" height="24" viewBox="0 0 24 24" version="1.1" xmlns="http://www.w3.org/2000/svg" xmlns:xlink="http://www.w3.org/1999/xlink">
	<g fill="#1da1f2"><path d="M22.06 19.94l-3.73-3.73A8.94 8.94 0 0 0 20 11a9 9 0 1 0-9 9 8.95 8.95 0 0 0 5.21-1.67l3.73 3.73c.292.294.676.44 1.06.44s.768-.146 1.06-.44a1.498 1.498 0 0 0 0-2.12zM11 17c-3.308 0-6-2.692-6-6s2.692-6 6-6 6 2.692 6 6-2.692 6-6 6z"></path></g>
</svg>