<?xml version="1.0" encoding="utf-8"?>
<!-- Generator: Adobe Illustrator 16.0.0, SVG Export Plug-In . SVG Version: 6.00 Build 0)  -->
<!DOCTYPE svg PUBLIC "-//W3C//DTD SVG 1.1//EN" "http://www.w3.org/Graphics/SVG/1.1/DTD/svg11.dtd">
<svg version="1.1" id="图层_1" xmlns="http://www.w3.org/2000/svg" xmlns:xlink="http://www.w3.org/1999/xlink" x="0px" y="0px"
	 width="30px" height="30px" viewBox="0 0 30 30" enable-background="new 0 0 30 30" xml:space="preserve">
<g>
	<path fill="#FFFFFF" d="M27.139,13.196c-0.559-0.352-1.182-0.636-1.873-0.855c-0.146-0.049-0.249-0.084-0.31-0.109
		c-0.06-0.024-0.134-0.07-0.219-0.136c-0.085-0.067-0.112-0.143-0.081-0.228c0.03-0.085,0.056-0.207,0.081-0.364
		c0.546-1.394,0.546-2.473,0-3.237c-0.558-0.74-1.485-1.11-2.782-1.11s-2.789,0.358-4.474,1.073l-0.109,0.037
		c-0.071,0.024-0.154,0.045-0.245,0.063c-0.091,0.018-0.179,0.021-0.263,0.009c-0.086-0.012-0.146-0.055-0.184-0.127
		c-0.035-0.073-0.029-0.194,0.019-0.364c0.546-1.758,0.425-3.025-0.362-3.801c-0.898-0.897-2.393-0.939-4.483-0.127
		C9.762,4.734,7.692,6.165,5.643,8.214c-1.551,1.551-2.749,3.115-3.591,4.691c-0.843,1.577-1.264,3.062-1.264,4.456
		c0,1.309,0.394,2.518,1.182,3.628c0.788,1.109,1.828,2.024,3.119,2.746c1.292,0.721,2.75,1.286,4.374,1.69
		c1.625,0.407,3.291,0.61,5.001,0.61c1.709,0,3.349-0.188,4.919-0.564s2.94-0.878,4.109-1.51c1.17-0.63,2.191-1.342,3.064-2.137
		c0.873-0.793,1.534-1.623,1.982-2.49c0.449-0.868,0.673-1.713,0.673-2.537c0-0.776-0.206-1.483-0.618-2.119
		C28.182,14.042,27.696,13.548,27.139,13.196z M21.201,21.535c-1.776,1.437-4.017,2.294-6.719,2.573
		c-1.771,0.17-3.435,0.043-4.993-0.382c-1.558-0.425-2.822-1.085-3.792-1.982c-0.97-0.897-1.509-1.928-1.618-3.091
		c-0.17-1.771,0.633-3.374,2.409-4.811c1.776-1.437,4.016-2.294,6.72-2.573c1.77-0.17,3.434-0.042,4.991,0.382
		s2.822,1.085,3.792,1.982c0.97,0.898,1.51,1.928,1.618,3.092C23.78,18.495,22.977,20.099,21.201,21.535z"/>
	<path fill="#FFFFFF" d="M15.009,13.997c-1.285-0.327-2.561-0.212-3.828,0.346c-1.268,0.557-2.186,1.4-2.756,2.527
		c-0.569,1.152-0.609,2.288-0.118,3.41c0.491,1.121,1.385,1.888,2.683,2.301c1.345,0.437,2.704,0.363,4.073-0.219
		c1.371-0.582,2.327-1.491,2.874-2.728c0.545-1.214,0.53-2.368-0.046-3.464C17.315,15.073,16.354,14.349,15.009,13.997z
		 M13.064,19.889c-0.268,0.413-0.646,0.701-1.138,0.863c-0.491,0.164-0.943,0.149-1.354-0.045c-0.413-0.193-0.673-0.499-0.782-0.918
		c-0.109-0.417-0.031-0.833,0.235-1.245c0.255-0.4,0.619-0.68,1.092-0.836c0.473-0.158,0.915-0.152,1.327,0.018
		c0.425,0.182,0.697,0.485,0.818,0.909C13.384,19.059,13.318,19.478,13.064,19.889z M14.772,17.688
		c-0.084,0.157-0.218,0.271-0.399,0.336c-0.182,0.067-0.358,0.07-0.527,0.01c-0.363-0.17-0.442-0.443-0.237-0.818
		c0.085-0.158,0.216-0.27,0.391-0.336c0.176-0.067,0.349-0.07,0.519-0.01c0.157,0.061,0.263,0.174,0.318,0.336
		C14.891,17.37,14.87,17.531,14.772,17.688z"/>
</g>
</svg>
