<?xml version="1.0" encoding="UTF-8" standalone="no"?>
<svg width="44px" height="45px" viewBox="0 0 44 45" version="1.1" xmlns="http://www.w3.org/2000/svg" xmlns:xlink="http://www.w3.org/1999/xlink">
    <!-- Generator: Sketch 39.1 (31720) - http://www.bohemiancoding.com/sketch -->
    <title>save</title>
    <desc>Created with Sketch.</desc>
    <defs>
        <path d="M33.5556832,5 L38.0029538,5 C40.8241112,5 43.1111111,7.31516629 43.1111111,10.1476518 L43.1111111,39.8523482 C43.1111111,42.6953178 40.8110766,45 37.9971041,45 L6.00289592,45 C3.17850783,45 0.888888889,42.6848337 0.888888889,39.8523482 L0.888888889,10.1476518 C0.888888889,7.30468222 3.18213948,5 5.99704625,5 L10.4443168,5" id="path-1"></path>
        <mask id="mask-2" maskContentUnits="userSpaceOnUse" maskUnits="objectBoundingBox" x="0" y="0" width="42.2222222" height="40" fill="white">
            <use xlink:href="#path-1"></use>
        </mask>
    </defs>
    <g id="517" stroke="none" stroke-width="1" fill="none" fill-rule="evenodd">
        <g id="查看大图" transform="translate(-646.000000, -1229.000000)">
            <g id="save" transform="translate(639.000000, 1223.000000)">
                <rect id="Rectangle-203" x="0" y="0" width="58" height="58"></rect>
                <g id="Group-2" transform="translate(7.000000, 6.000000)">
                    <path d="M16,29 L16,16.0008717 C16,15.4446309 15.5522847,15 15,15 C14.4438648,15 14,15.4481055 14,16.0008717 L14,29.9991283 C14,29.9992736 14,29.9994189 14.0000001,29.9995642 C14,29.9997094 14,29.9998547 14,30 C14,30.2779215 14.1119087,30.5278048 14.292863,30.7082661 C14.4741188,30.8889584 14.7240019,31 15,31 C15.0001453,31 15.0002906,31 15.0004359,30.9999999 C15.0005811,31 15.0007264,31 15.0008717,31 L28.9991283,31 C29.5553691,31 30,30.5522847 30,30 C30,29.4438648 29.5518945,29 28.9991283,29 L16,29 Z" id="Combined-Shape" fill="#FFFFFF" transform="translate(22.000000, 23.000000) scale(1, -1) rotate(-225.000000) translate(-22.000000, -23.000000) "></path>
                    <use id="Rectangle-190" stroke="#FFFFFF" mask="url(#mask-2)" stroke-width="4" stroke-linecap="round" xlink:href="#path-1"></use>
                    <rect id="Rectangle-190" fill="#FFFFFF" x="21" y="0" width="2" height="34" rx="1"></rect>
                </g>
            </g>
        </g>
    </g>
</svg>