<?xml version="1.0" encoding="UTF-8" standalone="no"?>
<svg width="112px" height="112px" viewBox="0 0 112 112" version="1.1" xmlns="http://www.w3.org/2000/svg" xmlns:xlink="http://www.w3.org/1999/xlink">
    <!-- Generator: Sketch 3.7.2 (28276) - http://www.bohemiancoding.com/sketch -->
    <title>moment</title>
    <desc>Created with Sketch.</desc>
    <defs></defs>
    <g id="Page-1" stroke="none" stroke-width="1" fill="none" fill-rule="evenodd">
        <g id="moment" transform="translate(1.000000, 1.000000)">
            <circle id="Oval-100" stroke="#E3E0DB" fill="#FFFFFF" cx="55" cy="55" r="55"></circle>
            <path d="M24.5570299,67.7590891 C27.1907369,74.0326675 31.7145771,79.3494797 37.4447748,82.9529525 L38.4223402,56.7354784 L24.5570299,67.7590891 Z" id="Path" fill="#9AD122"></path>
            <path d="M67.7584042,85.4436645 C74.0345825,82.8099575 79.3461949,78.2835174 82.9509676,72.5559197 L56.7334935,71.5757543 L67.7584042,85.4436645 Z" id="Path" fill="#00B1FE"></path>
            <path d="M85.4390797,42.2448902 C82.8066727,35.9661119 78.2828325,30.6544995 72.5513349,27.0471269 L71.5763693,53.2672009 L85.4390797,42.2448902 Z" id="Path" fill="#6467F0"></path>
            <path d="M42.2416054,24.5590148 C35.9680269,27.1914218 30.6538146,31.717862 27.047742,37.4493595 L53.265216,38.4243251 L42.2416054,24.5590148 Z" id="Path" fill="#FF7611"></path>
            <path d="M65.440586,67.7746885 L85.1244908,68.5078626 C86.8105313,64.7457955 87.8114959,60.6067417 87.9765901,56.2297963 C88.0779865,53.4725936 87.8491946,50.7790888 87.3058138,48.1986799 C87.3058138,48.1986799 67.3463187,66.2186435 65.440586,67.7746885 Z" id="Path" fill="#5183F0"></path>
            <path d="M42.2260059,65.4438708 L41.4954317,85.1251757 C45.252299,86.8138161 49.3991526,87.8173807 53.7708982,87.977275 C56.5281008,88.0812713 59.2190058,87.8498795 61.8046144,87.3064987 C61.8046144,87.3064987 43.7846509,67.3483036 42.2260059,65.4438708 Z" id="Path" fill="#66D01F"></path>
            <path d="M44.5568236,42.2292907 L24.8755187,41.4987165 C23.1894782,45.2568838 22.1885136,49.3998375 22.0234194,53.7715831 C21.922023,56.5313856 22.1508149,59.2235905 22.6915958,61.8052993 C22.6915958,61.8052993 42.6549908,43.7866357 44.5568236,42.2292907 Z" id="Path" fill="#FFC817"></path>
            <path d="M67.7740036,44.5601084 L68.5045778,24.8762036 C64.7438106,23.1901631 60.600857,22.1865986 56.2291114,22.0241043 C53.4719087,21.920108 50.7771039,22.1540997 48.1953951,22.6974805 C48.1953951,22.6974805 66.2140587,42.6569756 67.7740036,44.5601084 Z" id="Path" fill="#FA5452"></path>
        </g>
    </g>
</svg>