<?xml version="1.0" encoding="UTF-8" standalone="no"?>
<svg width="30px" height="30px" viewBox="0 0 30 30" version="1.1" xmlns="http://www.w3.org/2000/svg" xmlns:xlink="http://www.w3.org/1999/xlink">
    <!-- Generator: Sketch 39.1 (31720) - http://www.bohemiancoding.com/sketch -->
    <title>Group 3</title>
    <desc>Created with Sketch.</desc>
    <defs>
        <path d="M19.0113525,0 L27.0056834,0 C28.6593988,0 30,1.3434311 30,3.00119177 L30,11.0161743 M30,18.0230713 L30,26.9902143 C30,28.652473 28.6526814,30 26.9999809,30 L3.00001915,30 C1.34315432,30 0,28.6526814 0,26.9999809 L0,3.00001915 C0,1.34315432 1.34546568,0 3.00593794,0 L12.0310059,0" id="path-1"></path>
        <mask id="mask-2" maskContentUnits="userSpaceOnUse" maskUnits="objectBoundingBox" x="0" y="0" width="30" height="30" fill="white">
            <use xlink:href="#path-1"></use>
        </mask>
        <rect id="path-3" x="19" y="-2" width="2" height="24" rx="1"></rect>
        <mask id="mask-4" maskContentUnits="userSpaceOnUse" maskUnits="objectBoundingBox" x="0" y="0" width="2" height="24" fill="white">
            <use xlink:href="#path-3"></use>
        </mask>
    </defs>
    <g id="9-7" stroke="none" stroke-width="1" fill="none" fill-rule="evenodd">
        <g id="经验详情" transform="translate(-610.000000, -4074.000000)">
            <g id="Group-10-Copy-2" transform="translate(610.000000, 4067.000000)">
                <g id="Group-3" transform="translate(0.000000, 7.000000)">
                    <circle id="Oval-2" fill="#F85F4B" cx="12" cy="1" r="1"></circle>
                    <circle id="Oval-2-Copy" fill="#F85F4B" cx="29" cy="18" r="1"></circle>
                    <use id="Rectangle-6" stroke="#F85F4B" mask="url(#mask-2)" stroke-width="4" xlink:href="#path-1"></use>
                    <use id="Rectangle-7" stroke="#F85F4B" mask="url(#mask-4)" stroke-width="2" fill="#D8D8D8" transform="translate(20.000000, 10.000000) rotate(45.000000) translate(-20.000000, -10.000000) " xlink:href="#path-3"></use>
                    <rect id="Rectangle-9" fill="#F85F4B" x="18" y="0" width="4" height="2" rx="1"></rect>
                    <rect id="Rectangle-9-Copy" fill="#F85F4B" transform="translate(29.000000, 10.000000) rotate(90.000000) translate(-29.000000, -10.000000) " x="27" y="9" width="4" height="2" rx="1"></rect>
                </g>
            </g>
        </g>
    </g>
</svg>