<?xml version="1.0" encoding="UTF-8" standalone="no"?>
<svg width="112px" height="112px" viewBox="0 0 112 112" version="1.1" xmlns="http://www.w3.org/2000/svg" xmlns:xlink="http://www.w3.org/1999/xlink">
    <!-- Generator: Sketch 3.7.2 (28276) - http://www.bohemiancoding.com/sketch -->
    <title>wechat</title>
    <desc>Created with Sketch.</desc>
    <defs></defs>
    <g id="Page-1" stroke="none" stroke-width="1" fill="none" fill-rule="evenodd">
        <g id="wechat" transform="translate(1.000000, 1.000000)">
            <circle id="Oval-100" stroke="#E3E0DB" fill="#FFFFFF" cx="55" cy="55" r="55"></circle>
            <path d="M37.7708041,44.3708041 C36.0186228,44.3708041 34.2547135,43.2003376 34.2547135,41.4481564 C34.2547135,39.6912839 36.0186228,38.5337183 37.7708041,38.5337183 C39.5229853,38.5337183 40.6864149,39.6912839 40.6864149,41.4481564 C40.6864149,43.2003376 39.5229853,44.3708041 37.7708041,44.3708041 M54.1186317,38.5337183 C55.8778498,38.5337183 57.0447979,39.6912839 57.0447979,41.4481564 C57.0447979,43.2003376 55.8778498,44.3708041 54.1186317,44.3708041 C52.3687961,44.3708041 50.6142692,43.2003376 50.6142692,41.4481564 C50.6142692,39.6912839 52.3687961,38.5337183 54.1186317,38.5337183 M66.6806219,44.8657308 C67.4394314,44.8657308 68.1865127,44.9231986 68.9300755,45.007641 C66.9081475,35.5934785 56.8477654,28.6 45.3600711,28.6 C32.5177788,28.6 22,37.3526966 22,48.4662639 C22,54.8827188 25.4996713,60.1533363 31.3473123,64.2394136 L29.0110706,71.2680764 L37.1773612,67.1714438 C40.0976633,67.7496402 42.4432874,68.3395646 45.3600711,68.3395646 C46.0930786,68.3395646 46.8190493,68.3055531 47.5426744,68.2480853 C47.0841048,66.6905908 46.8190493,65.0556908 46.8190493,63.3551133 C46.8190493,53.1481297 55.5846468,44.8657308 66.6806219,44.8657308 Z M74.5654376,60.1533363 C73.4113905,60.1533363 72.2467881,58.994598 72.2467881,57.814749 C72.2467881,56.6489738 73.4113905,55.4785073 74.5654376,55.4785073 C76.3176188,55.4785073 77.4904309,56.6489738 77.4904309,57.814749 C77.4904309,58.994598 76.3176188,60.1533363 74.5654376,60.1533363 Z M61.7196268,60.1533363 C60.5561972,60.1533363 59.3833852,58.994598 59.3833852,57.814749 C59.3833852,56.6489738 60.5561972,55.4785073 61.7196268,55.4785073 C63.4858818,55.4785073 64.6422745,56.6489738 64.6422745,57.814749 C64.6422745,58.994598 63.4858818,60.1533363 61.7196268,60.1533363 M88,63.075984 C88,53.7345358 78.6538605,46.1229853 68.1583652,46.1229853 C57.0447979,46.1229853 48.2921013,53.7345358 48.2921013,63.075984 C48.2921013,72.4291604 57.0447979,80.0266371 68.1583652,80.0266371 C70.4852243,80.0266371 72.8308485,79.440231 75.168263,78.8561706 L81.577681,82.3628787 L79.8161173,76.5269658 C84.5097112,73.0085295 88,68.3395646 88,63.075984" id="Fill-1" fill="#24C228"></path>
        </g>
    </g>
</svg>