<?xml version="1.0" encoding="UTF-8" standalone="no"?>
<svg width="30px" height="33px" viewBox="0 0 30 33" version="1.1" xmlns="http://www.w3.org/2000/svg" xmlns:xlink="http://www.w3.org/1999/xlink">
    <!-- Generator: Sketch 39.1 (31720) - http://www.bohemiancoding.com/sketch -->
    <title>Group 5</title>
    <desc>Created with Sketch.</desc>
    <defs>
        <path d="M0,13.0068483 C0,11.3462119 1.33797961,10.1667592 2.97358531,10.3265083 C2.97358531,10.3265083 7,11 8,10 C8.36162778,9.63837222 10,9 10,5 C10,1 10,8.37983478e-08 13,0 C18,-1.39663913e-07 18.6888763,8.03625333 18.6888763,8.03625333 C18.8607052,9.12080067 19.9001762,10 20.992017,10 L25.9976305,10 C28.2080781,10 30,11.7856329 30,14.0062943 L30,29.9931517 C30,31.6537881 28.6526814,33 26.9999809,33 L3.00001915,33 C1.34315432,33 0,31.6640085 0,29.9931517 L0,13.0068483 Z" id="path-1"></path>
        <mask id="mask-2" maskContentUnits="userSpaceOnUse" maskUnits="objectBoundingBox" x="0" y="0" width="30" height="33" fill="white">
            <use xlink:href="#path-1"></use>
        </mask>
        <polygon id="path-3" points="7 11 9 11 9 13 9 33 7 33"></polygon>
        <mask id="mask-4" maskContentUnits="userSpaceOnUse" maskUnits="objectBoundingBox" x="0" y="0" width="2" height="22" fill="white">
            <use xlink:href="#path-3"></use>
        </mask>
    </defs>
    <g id="9-7" stroke="none" stroke-width="1" fill="none" fill-rule="evenodd">
        <g id="经验详情" transform="translate(-486.000000, -4070.000000)" stroke-width="4">
            <g id="Group-9-Copy" transform="translate(486.000000, 4067.000000)">
                <g id="Group-5" transform="translate(0.000000, 3.000000)">
                    <use id="Rectangle-10" stroke="#F85F4B" mask="url(#mask-2)" xlink:href="#path-1"></use>
                    <use id="Rectangle-71" stroke="#FC5D46" mask="url(#mask-4)" xlink:href="#path-3"></use>
                </g>
            </g>
        </g>
    </g>
</svg>