<?xml version="1.0" encoding="utf-8"?>
<!-- Generator: Adobe Illustrator 16.0.0, SVG Export Plug-In . SVG Version: 6.00 Build 0)  -->
<!DOCTYPE svg PUBLIC "-//W3C//DTD SVG 1.1//EN" "http://www.w3.org/Graphics/SVG/1.1/DTD/svg11.dtd">
<svg version="1.1" id="图层_1" xmlns="http://www.w3.org/2000/svg" xmlns:xlink="http://www.w3.org/1999/xlink" x="0px" y="0px"
	 width="30px" height="30px" viewBox="0 0 30 30" enable-background="new 0 0 30 30" xml:space="preserve">
<g>
	<path fill="none" stroke="#FFFFFF" stroke-miterlimit="10" d="M14.491,12.905c0,0,4.809-6.243-5.314-9.954"/>
	<path fill="#666767" d="M24.328,11.579c0-0.594-0.697-1.076-1.291-1.076H18.5c-0.5,0-1.121,0.947-1.307,1.603h-3.763
		c-0.186-0.655-0.808-1.603-1.307-1.603H7.586c-0.594,0-1.292,0.481-1.292,1.076L1.489,24.995c0,0.595,0.482,1.076,1.076,1.076
		h3.246c0.594,0,1.363-0.625,1.363-1.22l2.964-5.828h10.346l2.964,5.828c0,0.595,0.77,1.22,1.363,1.22h3.247
		c0.594,0,1.075-0.481,1.075-1.076L24.328,11.579z"/>
	<path fill="#C8C8E4" d="M23.704,11.028c0-0.594-0.696-1.076-1.291-1.076h-4.536c-0.501,0-1.122,0.948-1.308,1.603h-3.763
		C12.621,10.9,12,9.952,11.5,9.952H6.963c-0.595,0-1.292,0.482-1.292,1.076L0.866,24.444c0,0.594,0.482,1.076,1.076,1.076h3.246
		c0.594,0,1.363-0.624,1.363-1.22l2.964-5.828h10.347l2.964,5.828c0,0.596,0.769,1.22,1.363,1.22h3.246
		c0.594,0,1.076-0.482,1.076-1.076L23.704,11.028z"/>
	<circle fill="#FFFFFF" cx="9.021" cy="13.917" r="2.193"/>
	<circle fill="#FFFFFF" cx="20.578" cy="13.917" r="2.193"/>
	<path opacity="0.3" fill="#CCCCCC" d="M10.248,12.171l-2.655,3.493c0.964,0.732,2.341,0.546,3.074-0.419
		C11.399,14.281,11.212,12.905,10.248,12.171z"/>
	<path opacity="0.3" fill="#CCCCCC" d="M21.884,12.171l-2.655,3.493c0.964,0.732,2.34,0.546,3.073-0.419
		C23.035,14.281,22.848,12.905,21.884,12.171z"/>
</g>
</svg>
