<?xml version="1.0" encoding="utf-8"?>
<!-- Generator: Adobe Illustrator 16.0.0, SVG Export Plug-In . SVG Version: 6.00 Build 0)  -->
<!DOCTYPE svg PUBLIC "-//W3C//DTD SVG 1.1//EN" "http://www.w3.org/Graphics/SVG/1.1/DTD/svg11.dtd">
<svg version="1.1" id="图层_1" xmlns="http://www.w3.org/2000/svg" xmlns:xlink="http://www.w3.org/1999/xlink" x="0px" y="0px"
	 width="30px" height="30px" viewBox="0 0 30 30" enable-background="new 0 0 30 30" xml:space="preserve">
<g>
	<rect x="15.408" y="12.93" fill="#96C695" width="2.562" height="15.5"/>
	<rect x="12.343" y="12.93" fill="#96C695" width="2.562" height="15.5"/>
	<g>
		<polygon fill="#CBE5C1" points="23.859,10.146 22.144,12.024 25.573,12.024 28.048,12.024 25.573,8.269 		"/>
		<polygon fill="#96C695" points="27.29,10.146 25.573,8.269 28.048,12.024 29.004,12.024 		"/>
	</g>
	<path fill="#CBE5C1" d="M6.306,15.13v13.3h6.095v-7.268h0.005c0.05-1.452,1.267-2.617,2.766-2.617c1.498,0,2.716,1.165,2.766,2.617
		h0.005v7.268h6.095v-13.3H6.306z"/>
	<rect x="10.862" y="7.744" fill="#CBE5C1" width="8.62" height="8.249"/>
	<rect x="22.927" y="12.93" fill="#CBE5C1" width="5.294" height="15.5"/>
	<rect x="1.778" y="12.93" fill="#CBE5C1" width="5.295" height="15.5"/>
	<rect x="7.7" y="14.425" fill="#CBE5C1" width="0.821" height="3.201"/>
	<rect x="9.337" y="14.425" fill="#CBE5C1" width="0.821" height="3.201"/>
	<rect x="20.049" y="14.425" fill="#CBE5C1" width="0.821" height="3.201"/>
	<rect x="21.688" y="14.425" fill="#CBE5C1" width="0.821" height="3.201"/>
	<rect x="3.632" y="14.425" fill="#67B75E" width="1.231" height="2.552"/>
	<rect x="24.958" y="14.425" fill="#67B75E" width="1.231" height="2.552"/>
	<rect x="14.556" y="9.376" fill="#67B75E" width="1.231" height="2.553"/>
	<rect x="27.035" y="12.93" fill="#96C695" width="1.186" height="15.5"/>
	<rect x="5.713" y="12.93" fill="#96C695" width="1.187" height="15.5"/>
	<rect x="18.294" y="7.7" fill="#96C695" width="1.188" height="7.43"/>
	<g>
		<polygon fill="#CBE5C1" points="2.711,10.146 0.996,12.024 4.426,12.024 6.9,12.024 4.426,8.269 		"/>
		<polygon fill="#96C695" points="6.142,10.146 4.426,8.269 6.9,12.024 7.856,12.024 		"/>
	</g>
	<g>
		<polygon fill="#CBE5C1" points="12.121,3.99 9.337,7.038 14.905,7.038 18.92,7.038 14.905,0.942 		"/>
		<polygon fill="#96C695" points="17.688,3.99 14.905,0.942 18.92,7.038 20.473,7.038 		"/>
	</g>
</g>
</svg>
