<?xml version="1.0" encoding="utf-8"?>
<!-- Generator: Adobe Illustrator 16.0.0, SVG Export Plug-In . SVG Version: 6.00 Build 0)  -->
<!DOCTYPE svg PUBLIC "-//W3C//DTD SVG 1.1//EN" "http://www.w3.org/Graphics/SVG/1.1/DTD/svg11.dtd">
<svg version="1.1" id="图层_1" xmlns="http://www.w3.org/2000/svg" xmlns:xlink="http://www.w3.org/1999/xlink" x="0px" y="0px"
	 width="30px" height="30px" viewBox="0 0 30 30" enable-background="new 0 0 30 30" xml:space="preserve">
<g>
	<path fill="#CCCCCC" d="M6.784,3.113C2.141,6.282,0.946,12.615,4.115,17.26c3.169,4.645,9.503,5.84,14.146,2.668
		c4.643-3.169,5.838-9.502,2.669-14.146S11.427-0.057,6.784,3.113z M16.67,17.595c-3.356,2.292-7.933,1.427-10.223-1.927
		c-2.29-3.356-1.426-7.932,1.929-10.222c3.355-2.291,7.933-1.427,10.223,1.929C20.888,10.729,20.025,15.306,16.67,17.595z"/>
	<path fill="#CCCCCC" d="M24.52,25.404c0.649,0.951,0.403,2.246-0.546,2.895l0,0c-0.949,0.648-2.244,0.402-2.894-0.547l-4.459-6.535
		c-0.649-0.949-0.405-2.244,0.545-2.893l0,0c0.95-0.649,2.245-0.405,2.895,0.545L24.52,25.404z"/>
</g>
</svg>
