<svg id="Layer_1" data-name="Layer 1" xmlns="http://www.w3.org/2000/svg" width="319.96" height="304.3" viewBox="0 0 319.96 304.3">
  <title>Jupiter_logo</title>
  <g>
    <polygon points="155.21 157.25 98.87 188.06 61.11 304.3 159.98 232.46 175.33 168.21 155.21 157.25" style="fill: #7f3f98"/>
    <polygon points="221.08 188.06 151.46 168.21 159.98 232.46 258.85 304.3 221.08 188.06" style="fill: #27aae1"/>
    <polygon points="159.98 0 122.21 116.23 159.98 168.21 159.98 168.21 159.98 168.21 197.74 116.23 159.98 0" style="fill: #fbb040"/>
    <polygon points="122.21 116.23 0 116.23 98.87 188.06 178.46 157.25 122.21 116.23" style="fill: #d3001a"/>
    <polygon points="197.74 116.23 151.46 156.48 159.98 181.48 221.08 188.06 319.96 116.23 197.74 116.23" style="fill: #009444"/>
    <circle cx="159.98" cy="168.21" style="fill: #231f20"/>
    <circle cx="159.98" cy="168.21" style="fill: #231f20"/>
    <polygon points="197.74 116.23 159.98 168.21 159.98 168.21 221.08 188.06 319.96 116.23 197.74 116.23" style="fill: #009444"/>
    <polygon points="159.98 168.21 159.98 168.21 159.98 168.21 159.98 168.21" style="fill: #231f20"/>
    <polygon points="159.98 168.21 159.98 168.21 159.98 168.21 159.98 168.21" style="fill: #231f20"/>
    <polygon points="159.98 168.21 159.98 168.21 159.98 168.21 159.98 168.21" style="fill: #231f20"/>
    <rect x="159.98" y="168.21" style="fill: #231f20"/>
    <polygon points="159.98 168.21 98.87 188.06 61.11 304.3 159.98 232.46 159.98 168.21 159.98 168.21" style="fill: #995db5"/>
    <polygon points="221.08 188.06 159.98 168.21 159.98 232.46 258.85 304.3 221.08 188.06" style="fill: #27aae1"/>
    <polygon points="159.98 0 122.21 116.23 159.98 168.21 159.98 168.21 159.98 168.21 197.74 116.23 159.98 0" style="fill: #fbb040"/>
    <polygon points="122.21 116.23 0 116.23 98.87 188.06 159.98 168.21 122.21 116.23" style="fill: #d3001a"/>
    <circle cx="159.98" cy="168.21" style="fill: #231f20"/>
    <circle cx="159.98" cy="168.21" style="fill: #231f20"/>
    <polygon points="159.98 168.21 159.98 168.21 159.98 168.21 159.98 168.21" style="fill: #231f20"/>
    <polygon points="159.98 168.21 159.98 168.21 159.98 168.21 159.98 168.21" style="fill: #231f20"/>
    <polygon points="159.98 168.21 159.98 168.21 159.98 168.21 159.98 168.21" style="fill: #231f20"/>
    <rect x="159.98" y="168.21" style="fill: #231f20"/>
  </g>
</svg>
