<svg id="Layer_1" data-name="Layer 1" xmlns="http://www.w3.org/2000/svg" width="190.19" height="60.98" viewBox="0 0 190.19 60.98">
  <defs>
    <style>
      .cls-1 {
        fill: #fff;
      }

      .cls-2, .cls-3 {
        fill: none;
        stroke: #fff;
        stroke-width: 1.3px;
      }

      .cls-2 {
        stroke-linecap: round;
        stroke-linejoin: round;
      }

      .cls-3 {
        stroke-miterlimit: 10;
      }
    </style>
  </defs>
  <title>Jupiter_deco</title>
  <g>
    <g>
      <path class="cls-1" d="M22.61,39.36H22.55c-1.68-.28-3.33.79-4.44,3.44a6.9,6.9,0,0,1-3,3.53,0.17,0.17,0,0,0,0,.31c2.44,0.8,8,2,9.47-4.76a0.2,0.2,0,0,0,0-.11A4.86,4.86,0,0,0,22.61,39.36Z" transform="translate(0 0.01)"/>
      <path class="cls-2" d="M25.45,35.83A14.52,14.52,0,0,0,24.06,38a6.14,6.14,0,0,1,2,2.35A18.39,18.39,0,0,0,28.52,39" transform="translate(0 0.01)"/>
      <path class="cls-2" d="M33,34.42c4.62-5.1,10.05-12,9.8-12.23s-7.39,4.92-12.67,9.36" transform="translate(0 0.01)"/>
      <path class="cls-2" d="M39.45,40.89L22.13,23.58a3,3,0,1,0-4.26,4.26L35.54,45.52l6.1,1.84-1.84-6.1Z" transform="translate(0 0.01)"/>
      <path class="cls-2" d="M24,25.4c-0.69-.69-2.21-0.29-3.38.88S19,29,19.69,29.66" transform="translate(0 0.01)"/>
      <path class="cls-2" d="M39.62,41.07c-0.69-.69-2.21-0.29-3.38.88s-1.57,2.69-.88,3.38" transform="translate(0 0.01)"/>
      <path class="cls-1" d="M38.72,46.48a2,2,0,0,1,1.95-2h0.1l0.89,2.94Z" transform="translate(0 0.01)"/>
      <line class="cls-2" x1="23.01" y1="28.73" x2="34.55" y2="40.28"/>
    </g>
    <line class="cls-2" x1="33.21" y1="53.52" x2="24.56" y2="53.52"/>
    <path class="cls-2" d="M23.14,14.55H3.3A2.66,2.66,0,0,0,.65,17.2V50.83A2.66,2.66,0,0,0,3.3,53.48H27v1.35a3,3,0,0,1-2.29,2.88l-9.4,2.21a0.2,0.2,0,0,0,0,.4H42.83a0.2,0.2,0,0,0,0-.4L33,57.7a3,3,0,0,1-2.28-2.88V53.5H54.38A2.66,2.66,0,0,0,57,50.85V17.19a2.66,2.66,0,0,0-2.65-2.65H23.14" transform="translate(0 0.01)"/>
  </g>
  <g>
    <line class="cls-2" x1="165.67" y1="53.52" x2="157.02" y2="53.52"/>
    <path class="cls-2" d="M155.6,14.55H135.76a2.66,2.66,0,0,0-2.65,2.65V50.83a2.66,2.66,0,0,0,2.65,2.65h23.67v1.35a3,3,0,0,1-2.29,2.88l-9.4,2.21a0.2,0.2,0,0,0,0,.4h27.6a0.2,0.2,0,0,0,0-.4l-9.8-2.21a3,3,0,0,1-2.28-2.88V53.51h23.67a2.66,2.66,0,0,0,2.61-2.68V17.19a2.66,2.66,0,0,0-2.65-2.65H155.6" transform="translate(0 0.01)"/>
    <path class="cls-3" d="M160.37,33.94l0-.06,0.43-.47c0.28-.29.68-0.7,1.21-1.21a25.17,25.17,0,0,1,2-1.72,23.44,23.44,0,0,1,2.83-1.94A13.52,13.52,0,0,1,170.78,27a10.53,10.53,0,0,1,4.62.18,8.56,8.56,0,0,1,4.43,2.61,7.54,7.54,0,0,1,1.42,2.48,7.67,7.67,0,0,1,.35,1.43c0,0.25.07,0.53,0.08,0.75V35a0.31,0.31,0,0,1,0,.08v0.7a4.2,4.2,0,0,1-.11.71,7.54,7.54,0,0,1-.4,1.38,7.29,7.29,0,0,1-1.49,2.35,8.13,8.13,0,0,1-4.38,2.29,9.48,9.48,0,0,1-1.15.16,8.88,8.88,0,0,1-1.09,0,7.87,7.87,0,0,1-2.19-.28,12.89,12.89,0,0,1-3.58-1.67,22.67,22.67,0,0,1-2.63-2c-0.74-.65-1.75-1.75-2.24-2.25" transform="translate(0 0.01)"/>
    <path class="cls-3" d="M163,35.83c0.5,0.47,1.51,1.51,2.26,2.1a21.34,21.34,0,0,0,2.58,1.79,11.61,11.61,0,0,0,3.29,1.34,4.66,4.66,0,0,0,.91.13h0.46a3.58,3.58,0,0,0,.48,0,7.58,7.58,0,0,0,1-.1,8.12,8.12,0,0,0,1-.19,6.58,6.58,0,0,0,3.44-2,5.45,5.45,0,0,0,1.25-2.76,1.54,1.54,0,0,1,.06-0.52V35.11h0V34.49a3,3,0,0,0-.08-0.48,5.3,5.3,0,0,0-.28-1,5.11,5.11,0,0,0-1-1.64A6.25,6.25,0,0,0,175,29.65a8.21,8.21,0,0,0-3.63,0,11.32,11.32,0,0,0-3,1.41,20.85,20.85,0,0,0-2.4,1.83c-0.69.6-1.26,1.17-1.73,1.65a10.35,10.35,0,0,0-1,1.14l-0.33.39,0,0.06" transform="translate(0 0.01)"/>
    <path class="cls-3" d="M160.19,34.16l-0.39-.38c-0.5-.47-1.11-1-1.86-1.62a21.35,21.35,0,0,0-2.58-1.79A11.61,11.61,0,0,0,152.07,29a4.66,4.66,0,0,0-.91-0.13H150.7a3.58,3.58,0,0,0-.48,0,7.58,7.58,0,0,0-1,.1,8.12,8.12,0,0,0-1,.19,6.58,6.58,0,0,0-3.44,2A5.61,5.61,0,0,0,143.47,35a5.41,5.41,0,0,0,1.45,3.65,6.25,6.25,0,0,0,3.35,1.72,8.21,8.21,0,0,0,3.63,0,11.32,11.32,0,0,0,3-1.41,20.86,20.86,0,0,0,2.4-1.83c0.69-.6,1.26-1.17,1.73-1.65a10.35,10.35,0,0,0,1-1.14l0.33-.39,0-.06" transform="translate(0 0.01)"/>
    <path class="cls-3" d="M162.83,36.13l0,0.06-0.43.47c-0.28.29-.68,0.7-1.21,1.21a25.17,25.17,0,0,1-2,1.72,23.44,23.44,0,0,1-2.83,1.94,13.52,13.52,0,0,1-3.89,1.56,10.53,10.53,0,0,1-4.62-.18,8.56,8.56,0,0,1-4.43-2.61,7.54,7.54,0,0,1-1.43-2.47,7.67,7.67,0,0,1-.35-1.43c0-.25-0.07-0.53-0.08-0.75V35a7.71,7.71,0,0,1,2-5.15,8.13,8.13,0,0,1,4.38-2.29,9.48,9.48,0,0,1,1.15-.16,8.88,8.88,0,0,1,1.09,0,7.87,7.87,0,0,1,2.19.28,12.89,12.89,0,0,1,3.58,1.67,22.67,22.67,0,0,1,2.63,2c0.74,0.65,1.35,1.27,1.84,1.77l0.39,0.42" transform="translate(0 0.01)"/>
  </g>
  <g>
    <path class="cls-2" d="M108.68,24.08c-1.28-2.84-4-6.81-5.14-7.74-0.35-.28-0.67,0-0.56.39,1.72,6.44-1.22,7.4-2.91,3.41a15.72,15.72,0,0,1-.75-5.53,17.78,17.78,0,0,0-4.1-11.49A13.72,13.72,0,0,0,92.64.74a0.53,0.53,0,0,0-.84.41C92,3.87,91.8,11.66,84.3,21,77.48,29.6,80.12,36.24,81.06,38a14.72,14.72,0,0,0,6.74,6.64,11.21,11.21,0,0,0,2.52,1,6.81,6.81,0,0,1-1.68-4.49c0-5,6.75-10.29,6.75-10.29s6.51,5,6.75,10.29a6.26,6.26,0,0,1-1,3.75,8.08,8.08,0,0,0,.74-0.37c2.66-1.55,7.75-5.11,8.22-11.89A16.73,16.73,0,0,0,108.68,24.08Z" transform="translate(0 0.01)"/>
    <line class="cls-2" x1="99.35" y1="53.47" x2="90.7" y2="53.47"/>
    <path class="cls-2" d="M88.68,14.49H69.44a2.66,2.66,0,0,0-2.65,2.65V50.83a2.66,2.66,0,0,0,2.65,2.65H93.11v1.35a3,3,0,0,1-2.29,2.88l-9.4,2.21a0.2,0.2,0,0,0,0,.4H109a0.2,0.2,0,0,0,0-.4L99.13,57.7a3,3,0,0,1-2.28-2.88V53.5h23.67a2.66,2.66,0,0,0,2.65-2.65V17.14a2.66,2.66,0,0,0-2.65-2.65H99.32" transform="translate(0 0.01)"/>
  </g>
</svg>
