<?xml version="1.0" encoding="utf-8"?>
<!-- Generator: Adobe Illustrator 16.0.0, SVG Export Plug-In . SVG Version: 6.00 Build 0)  -->
<!DOCTYPE svg PUBLIC "-//W3C//DTD SVG 1.1//EN" "http://www.w3.org/Graphics/SVG/1.1/DTD/svg11.dtd">
<svg version="1.1" id="图层_1" xmlns="http://www.w3.org/2000/svg" xmlns:xlink="http://www.w3.org/1999/xlink" x="0px" y="0px"
	 width="200px" height="118px" viewBox="0 0 200 118" enable-background="new 0 0 200 118" xml:space="preserve">
<g>
	<polygon fill="#FFFFFF" points="24.154,30.792 45.929,114.394 6.981,107.56 	"/>
	<polygon opacity="0.5" fill="#FFFFFF" points="24.154,30.792 67.947,73.911 45.929,114.394 	"/>
	<polygon fill="#FFFFFF" points="67.947,73.911 51.606,3.607 24.154,30.792 	"/>
	<polygon opacity="0.5" fill="#FFFFFF" points="97.562,3.607 67.947,73.911 51.606,3.607 	"/>
	<polygon fill="#FFFFFF" points="67.947,73.911 129.724,73.879 97.562,3.607 	"/>
	<polygon opacity="0.5" fill="#FFFFFF" points="129.724,73.879 142.977,3.607 97.562,3.607 	"/>
	<path fill="#FFFFFF" d="M106.354,73.911"/>
	<polygon fill="#FFFFFF" points="129.724,73.879 169.733,29.372 142.977,3.607 	"/>
	<polygon opacity="0.5" fill="#FFFFFF" points="129.724,73.879 169.733,28.685 158.605,114.394 	"/>
	<polygon fill="#FFFFFF" points="158.605,114.394 194.554,108.418 169.642,29.297 	"/>
</g>
</svg>
