<?xml version="1.0" encoding="utf-8"?>
<!-- Generator: Adobe Illustrator 16.0.0, SVG Export Plug-In . SVG Version: 6.00 Build 0)  -->
<!DOCTYPE svg PUBLIC "-//W3C//DTD SVG 1.1//EN" "http://www.w3.org/Graphics/SVG/1.1/DTD/svg11.dtd">
<svg version="1.1" id="图层_1" xmlns="http://www.w3.org/2000/svg" xmlns:xlink="http://www.w3.org/1999/xlink" x="0px" y="0px"
	 width="30px" height="30px" viewBox="0 0 30 30" enable-background="new 0 0 30 30" xml:space="preserve">
<path fill-rule="evenodd" clip-rule="evenodd" fill="#FFFFFF" d="M21.655,24.2H9.006V4.65h12.649V24.2z M15.341,27.662
	c-0.678,0-1.229-0.552-1.229-1.231c0-0.678,0.551-1.229,1.229-1.229c0.667,0,1.218,0.552,1.218,1.229
	C16.56,27.11,16.009,27.662,15.341,27.662z M20.816,1.201H9.844c-1.725,0-3.139,1.426-3.139,3.163v21.274
	c0,1.736,1.414,3.162,3.139,3.162h10.972c1.725,0,3.139-1.426,3.139-3.162V4.363C23.955,2.627,22.541,1.201,20.816,1.201z
	 M12.456,2.638c0-0.161,0.126-0.287,0.287-0.287h5.175c0.16,0,0.287,0.126,0.287,0.287v0.575c0,0.16-0.127,0.287-0.287,0.287h-5.175
	c-0.161,0-0.287-0.127-0.287-0.287V2.638z"/>
</svg>
