<?xml version="1.0" standalone="no"?><!DOCTYPE svg PUBLIC "-//W3C//DTD SVG 1.1//EN" "http://www.w3.org/Graphics/SVG/1.1/DTD/svg11.dtd"><svg t="1492412925712" class="icon" style="" viewBox="0 0 1024 1024" version="1.1" xmlns="http://www.w3.org/2000/svg" p-id="7206" xmlns:xlink="http://www.w3.org/1999/xlink" width="200" height="200"><defs><style type="text/css"></style></defs><path d="M388.912193 534.289893c0-30.18423 48.672071-23.102545 79.930163-23.102545v-110.114393c0-7.778244 5.63052-14.656765 10.47741-17.936398 11.26104-7.604104 70.555637-8.27164 83.006633 0.812652 5.340287 3.918145 9.519642 11.899552 9.519641 20.664588v106.573551c34.073352 0 92.903577-8.387733 76.244204 35.3794-3.07647 8.039454-27.949436 31.751488-35.3794 37.440054-32.854373 25.076129-72.413129 86.924778-97.750468 80.133326-12.073692-3.221586-28.791112-23.015475-39.442662-33.550932l-19.561702-17.704212c-12.567088-12.596111-23.857151-23.857151-36.424239-36.424239-9.664758-9.664758-30.619579-25.279293-30.61958-42.170852z m-56.856641-232.67978c-18.545887 0-38.949266-14.279463-84.022447 4.788844-38.3688 16.224024-72.268012 59.613854-72.268012 98.21484 0 31.925628-1.596281 20.026076 5.340287 49.745933-47.453092 25.076129-85.27045 84.167564-85.27045 142.069044 0 57.843433 15.846721 92.787484 53.722125 131.011167 27.136784 27.397993 69.801032 48.381838 123.900459 48.381838h468.900402c76.621507 0 138.150898-38.078567 175.939233-101.11717 27.978459-46.669463 22.986452-75.953971 22.986452-127.992745 0-43.215691-36.250099-96.966839-68.001588-123.813389-20.287285-17.152769-50.877841-33.521909-78.8563-40.139221-20.635565-4.875914-4.730798-2.234794-21.187008-51.66147-13.437787-40.371408-27.339947-60.803809-52.706309-91.133156-34.334562-41.038943-107.531319-75.141319-166.448614-75.141319-58.946318 0-103.816337 13.698997-144.884304 43.389831-26.672411 19.27147-70.149311 63.415906-77.143926 93.396973z" fill="#333" p-id="7207"></path></svg>