<?xml version="1.0" encoding="utf-8"?>
<!-- Generator: Adobe Illustrator 18.0.0, SVG Export Plug-In . SVG Version: 6.00 Build 0)  -->
<!DOCTYPE svg PUBLIC "-//W3C//DTD SVG 1.1//EN" "http://www.w3.org/Graphics/SVG/1.1/DTD/svg11.dtd">
<svg version="1.1" id="图形" xmlns="http://www.w3.org/2000/svg" xmlns:xlink="http://www.w3.org/1999/xlink" x="0px" y="0px"
	 viewBox="492.5 496.5 40 40" enable-background="new 492.5 496.5 40 40" xml:space="preserve">
<path fill="#4A4A4A" d="M526.4,520.8L513.7,508c-0.3-0.3-0.7-0.4-1.2-0.4s-0.8,0.2-1.1,0.4l-12.9,12.9c-0.6,0.6-0.6,1.4,0,2
	c0.7,0.7,1.7,0.3,2,0l10.6-10.5v18.4c0,0.8,0.6,1.4,1.4,1.4c0.8,0,1.4-0.6,1.4-1.4v-18.5l10.5,10.5c0.3,0.3,0.6,0.4,1,0.4
	c0.4,0,0.7-0.1,1-0.4C526.9,522.3,526.9,521.4,526.4,520.8L526.4,520.8L526.4,520.8z M528.1,503.6h-31.2c-0.8,0-1.4-0.6-1.4-1.4
	c0-0.8,0.6-1.4,1.4-1.4h31.2c0.8,0,1.4,0.6,1.4,1.4C529.5,503,528.9,503.6,528.1,503.6L528.1,503.6L528.1,503.6z"/>
</svg>
