<?xml version="1.0" encoding="utf-8"?>
<!-- Generator: Adobe Illustrator 18.0.0, SVG Export Plug-In . SVG Version: 6.00 Build 0)  -->
<!DOCTYPE svg PUBLIC "-//W3C//DTD SVG 1.1//EN" "http://www.w3.org/Graphics/SVG/1.1/DTD/svg11.dtd">
<svg version="1.1" id="图层_1" xmlns="http://www.w3.org/2000/svg" xmlns:xlink="http://www.w3.org/1999/xlink" x="0px" y="0px"
	 viewBox="0 0 54 54" enable-background="new 0 0 54 54" xml:space="preserve">
<g>
	<path fill="rgba(80, 210, 194, 1)" d="M26.1,3.4C16.4,3.4,8.6,11.3,8.6,21c0,4.3,1.5,8.2,4.1,11.3c0.4,0.5,1.4,1.8,3.2,3.2c2.3,1.7,2.6,3.1,3,4.1
		c0.4,0.9,1.3,2.2,1.9,2.5h4.8h1.1h4.8c0.6-0.3,1.4-1.6,1.9-2.5c0.4-0.9,0.7-2.3,3-4.1c1.8-1.3,2.9-2.7,3.2-3.2
		c2.5-3,4.1-7,4.1-11.2C43.7,11.3,35.8,3.4,26.1,3.4z M35.8,29.1c-0.3,0.4-1,1.3-2.3,2.3c-1.7,1.3-1.9,2.3-2.2,2.9
		C31,35,30.4,36.1,30,36.3h-3.5h-0.8h-3.5c-0.4-0.2-1-1.3-1.3-1.9c-0.3-0.7-0.5-1.7-2.2-2.9c-1.3-1-2.1-1.9-2.3-2.3
		c-1.8-2.2-2.9-5-2.9-8.1c0-7,5.7-12.6,12.6-12.6S38.8,14,38.8,21C38.8,24.1,37.7,26.9,35.8,29.1z"/>
	<path fill="rgba(80, 210, 194, 1)" d="M20.2,44.5c0,0.1,0,0.1,0,0.2c0,3.2,2.6,5.9,5.9,5.9c3.2,0,5.9-2.6,5.9-5.9c0-0.1,0-0.1,0-0.2H20.2z"/>
</g>
</svg>
