<?xml version="1.0" encoding="utf-8"?>
<!-- Generator: Adobe Illustrator 18.0.0, SVG Export Plug-In . SVG Version: 6.00 Build 0)  -->
<!DOCTYPE svg PUBLIC "-//W3C//DTD SVG 1.1//EN" "http://www.w3.org/Graphics/SVG/1.1/DTD/svg11.dtd">
<svg version="1.1" id="图层_1" xmlns="http://www.w3.org/2000/svg" xmlns:xlink="http://www.w3.org/1999/xlink" x="0px" y="0px"
	 viewBox="0 0 54 54" enable-background="new 0 0 54 54" xml:space="preserve">
<path fill="#CCCCCC" d="M44.5,29.5h-5c-1.4,0-2.5-1.1-2.5-2.5s1.1-2.5,2.5-2.5h5c1.4,0,2.5,1.1,2.5,2.5S45.9,29.5,44.5,29.5z
	 M37.6,19.9c-1,1-2.6,1-3.5,0c-1-1-1-2.6,0-3.5l3.5-3.5c1-1,2.6-1,3.5,0c1,1,1,2.6,0,3.5L37.6,19.9z M27,47c-1.4,0-2.5-1.1-2.5-2.5
	v-5c0-1.4,1.1-2.5,2.5-2.5s2.5,1.1,2.5,2.5v5C29.5,45.9,28.4,47,27,47z M27,17c-1.4,0-2.5-1.1-2.5-2.5v-5C24.5,8.1,25.6,7,27,7
	s2.5,1.1,2.5,2.5v5C29.5,15.9,28.4,17,27,17z M16.4,41.1c-1,1-2.6,1-3.5,0c-1-1-1-2.6,0-3.5l3.5-3.5c1-1,2.6-1,3.5,0
	c1,1,1,2.6,0,3.5L16.4,41.1z M16.4,19.9l-3.5-3.5c-1-1-1-2.6,0-3.5c1-1,2.6-1,3.5,0l3.5,3.5c1,1,1,2.6,0,3.5
	C19,20.9,17.4,20.9,16.4,19.9z M17,27c0,1.4-1.1,2.5-2.5,2.5h-5C8.1,29.5,7,28.4,7,27s1.1-2.5,2.5-2.5h5C15.9,24.5,17,25.6,17,27z
	 M37.6,34.1l3.5,3.5c1,1,1,2.6,0,3.5c-1,1-2.6,1-3.5,0l-3.5-3.5c-1-1-1-2.6,0-3.5C35,33.1,36.6,33.1,37.6,34.1z"/>
</svg>
