<?xml version="1.0" encoding="utf-8"?>
<!-- Generator: Adobe Illustrator 16.0.0, SVG Export Plug-In . SVG Version: 6.00 Build 0)  -->
<!DOCTYPE svg PUBLIC "-//W3C//DTD SVG 1.1//EN" "http://www.w3.org/Graphics/SVG/1.1/DTD/svg11.dtd">
<svg version="1.1" id="图层_1" xmlns="http://www.w3.org/2000/svg" xmlns:xlink="http://www.w3.org/1999/xlink" x="0px" y="0px"
	 width="30px" height="30px" viewBox="0 0 30 30" enable-background="new 0 0 30 30" xml:space="preserve">
<g>
	<path fill="#381011" d="M3.058,17.188c-0.402,0.561-0.008,1.64,0,2.304c0.01,0.976-0.014,1.963-0.068,2.924
		c-0.07,1.23-0.323,2.852-1.566,3.382c2.143,1.121,4.9,0.854,7.249,0.613c1.01-0.104,2.007-0.194,3.025-0.106
		c0.789,0.072,3.164,0.645,3.887,0.133c0.499-0.353,0.343-1.218,0.489-1.874c0.273-1.225,1.086-3.774,0.16-4.842
		c-0.916-1.058-3.195-1.136-4.421-1.415c-1.889-0.432-3.825-1.36-5.593-2.171"/>
	<path fill="#381011" d="M27.379,17.556c0.403,0.559,0.006,1.636,0,2.3c-0.009,0.979,0.015,1.963,0.069,2.928
		c0.068,1.229,0.321,2.85,1.564,3.382c-2.141,1.117-4.899,0.851-7.249,0.611c-1.009-0.104-2.006-0.196-3.024-0.106
		c-0.79,0.07-3.166,0.643-3.887,0.133c-0.5-0.354-0.343-1.218-0.489-1.874c-0.274-1.223-1.087-3.774-0.161-4.844
		c0.917-1.058,3.195-1.134,4.421-1.415c1.889-0.432,3.825-1.36,5.594-2.171"/>
	<path fill="#C5C53A" d="M14.991,23.793c0,0,2.414,0.572,2.668,3.52l-2.546,0.606l-1.977-3.275L14.991,23.793z"/>
	<path fill="#C5C53A" d="M13.985,23.69c0,0-2.414,0.572-2.667,3.52l2.545,0.606l1.978-3.275L13.985,23.69z"/>
	<path fill="#C4D945" d="M15.665,23.745c0,1.095-0.541,1.977-1.208,1.977c-0.668,0-1.208-0.882-1.208-1.977
		c0-1.088,0.54-1.973,1.208-1.973C15.124,21.772,15.665,22.657,15.665,23.745z"/>
	<g>
		<path fill="#501816" d="M27.274,15.172c0.065-0.49,0.103-0.986,0.103-1.49c0-6.631-5.714-12.004-12.763-12.004
			c-7.048,0-12.761,5.373-12.761,12.004c0,0.519,0.039,1.031,0.106,1.532C7.665,15.258,21.224,15.201,27.274,15.172z"/>
	</g>
	
		<radialGradient id="SVGID_1_" cx="69.3066" cy="329.5605" r="4.5336" gradientTransform="matrix(1 0 0 1 -63.4609 -310.959)" gradientUnits="userSpaceOnUse">
		<stop  offset="0.1966" style="stop-color:#EA5952"/>
		<stop  offset="0.5314" style="stop-color:#EF856D"/>
		<stop  offset="1" style="stop-color:#F8C19D"/>
	</radialGradient>
	<path fill="url(#SVGID_1_)" d="M5.547,15.422c0.737,1.279,0.403,2.853-0.749,3.517c-1.151,0.666-2.683,0.167-3.419-1.109
		c-0.738-1.276-0.403-2.851,0.748-3.516C3.278,13.649,4.81,14.146,5.547,15.422z"/>
	
		<radialGradient id="SVGID_2_" cx="-574.6792" cy="329.5605" r="4.5329" gradientTransform="matrix(-1 0 0 1 -551.0273 -310.959)" gradientUnits="userSpaceOnUse">
		<stop  offset="0.1966" style="stop-color:#EA5952"/>
		<stop  offset="0.5314" style="stop-color:#EF856D"/>
		<stop  offset="1" style="stop-color:#F8C19D"/>
	</radialGradient>
	<path fill="url(#SVGID_2_)" d="M23.951,15.422c-0.736,1.279-0.401,2.853,0.751,3.517c1.148,0.666,2.681,0.167,3.418-1.109
		s0.402-2.851-0.749-3.516C26.221,13.649,24.689,14.146,23.951,15.422z"/>
	<path fill="#F8C19D" d="M25.908,14.844c0.106,5.875-4.829,9.406-11.023,9.519S3.584,21.124,3.479,15.25
		C3.372,9.375,8.307,4.521,14.5,4.409C20.694,4.296,25.803,8.97,25.908,14.844z"/>
	<path fill="#F2C19D" d="M14.498,4.274C11.354,4.331,8.452,5.576,6.325,7.78c-1.973,2.046-3.032,4.7-2.982,7.471
		c0.051,2.844,1.253,5.232,3.475,6.908c2.074,1.563,4.939,2.393,8.07,2.336c3.618-0.064,6.728-1.262,8.759-3.365
		c1.611-1.67,2.44-3.847,2.396-6.289c-0.05-2.771-1.205-5.384-3.251-7.358C20.587,5.356,17.642,4.218,14.498,4.274z M6.979,21.944
		c-2.153-1.627-3.317-3.942-3.367-6.698C3.563,12.548,4.596,9.962,6.52,7.968c2.075-2.152,4.911-3.369,7.983-3.424
		c3.073-0.056,5.951,1.056,8.103,3.133c1.994,1.923,3.118,4.469,3.167,7.169c0.043,2.371-0.759,4.479-2.319,6.098
		c-1.98,2.053-5.024,3.219-8.571,3.283C11.812,24.282,9.005,23.472,6.979,21.944z"/>
	<ellipse fill="#040000" cx="7.988" cy="17.057" rx="1.752" ry="2.452"/>
	<path fill="#040000" d="M7.526,14.877c-0.542,0.349-2.351-1.581-1.838-0.079c0.371,1.083,2.169,1.804,2.311,0.162
		c-0.139-0.102-0.304-0.161-0.473-0.151"/>
	<path fill="#040000" d="M8.327,15.232c-0.644,0.021-1.212-2.563-1.539-1.009c-0.234,1.121,0.941,2.659,1.901,1.321
		c-0.066-0.158-0.178-0.293-0.328-0.372"/>
	<ellipse fill="#040000" cx="21.638" cy="17.057" rx="1.751" ry="2.452"/>
	<path fill="#040000" d="M22.1,14.877c0.542,0.349,2.353-1.581,1.839-0.079c-0.372,1.083-2.17,1.804-2.311,0.162
		c0.138-0.102,0.303-0.161,0.472-0.151"/>
	<path fill="#040000" d="M21.301,15.232c0.642,0.021,1.211-2.563,1.537-1.009c0.235,1.121-0.941,2.659-1.901,1.321
		c0.066-0.158,0.179-0.293,0.328-0.372"/>
	<path fill="#E76C59" d="M11.396,19.834c-0.075,0.136-0.027,0.337-0.001,0.491c0.402,2.524,5.447,3.961,6.994,0.114
		c0.056-0.139,0.083-0.347,0.014-0.491c-0.07-0.139-0.136-0.091-0.27-0.022c-3.675,1.847-5.968,0.078-6.467-0.088
		C11.518,19.789,11.471,19.699,11.396,19.834z"/>
	<g>
		<path fill="#501816" d="M26.208,14.379l-0.759-5.054l-5.559-5.728l-5.897-0.842l-2.274,0.253L6.834,5.452L4.308,7.81L3.465,11.01
			l-1.096,3.201c0,0,2.901-0.759,7.557-1.063l0.88-6.664l-0.166,6.621c0.351-0.019,0.71-0.034,1.078-0.047l0.042-5.186l0.289,5.175
			C16.002,12.936,20.894,13.195,26.208,14.379z"/>
	</g>
	<circle fill="#FFFFFF" cx="6.999" cy="15.999" r="0.479"/>
	<circle fill="#FFFFFF" cx="22.545" cy="15.999" r="0.479"/>
	<ellipse fill="#F8C19D" cx="14.448" cy="24.286" rx="0.934" ry="0.871"/>
</g>
</svg>
