<?xml version="1.0" encoding="utf-8"?>
<!-- Generator: Adobe Illustrator 16.0.0, SVG Export Plug-In . SVG Version: 6.00 Build 0)  -->
<!DOCTYPE svg PUBLIC "-//W3C//DTD SVG 1.1//EN" "http://www.w3.org/Graphics/SVG/1.1/DTD/svg11.dtd">
<svg version="1.1" id="图层_1" xmlns="http://www.w3.org/2000/svg" xmlns:xlink="http://www.w3.org/1999/xlink" x="0px" y="0px"
	 width="30px" height="30px" viewBox="0 0 30 30" enable-background="new 0 0 30 30" xml:space="preserve">
<g>
	<path fill="#FFFFFF" d="M6.708,24.771c0-3.628-4.174-6.609-4.174-10.783c0-4.175,1.49-12.971,11.926-12.821
		c10.438,0.149,10.508,8.646,10.174,10.435c2.201,1.79,3.316,3.516,3.205,4.591c-0.109,1.075-0.986,1.224-1.965,1.82
		c0.961,0.895,0.129,2.086,0.129,2.086l-1.199,0.15c0,0,1.453,0.535,1.07,1.461c-0.381,0.924-1.611,0.198-1.07,1.53
		c0.541,1.333,1.074,2.38-1.057,3.348c-2.131,0.967-3.174-0.67-5.262,0c-2.088,0.668-1.49,2.249-1.49,2.249L6.708,24.771z"/>
	<path opacity="0.3" fill="#4CBBAC" d="M5.621,15.85c0,0-4.92-1.424,0-9.412c4.92-7.988,17.272-3.209,17.231,0.943
		c-0.023,2.531-0.645,4.853-3.367,5.29c0.598,2.88-4.742,3.328-6.321,2.582c0.358,2.833-1.432,2.85-4.114,2.692
		C6.367,17.788,5.621,15.85,5.621,15.85z"/>
	<path fill="#FFFFFF" d="M15.945,7.709l0.005-0.997l-0.548-0.044C15.369,6.48,15.321,6.3,15.259,6.126l0.453-0.311l-0.497-0.864
		L14.72,5.187c-0.117-0.142-0.249-0.272-0.389-0.393l0.237-0.492l-0.863-0.501l-0.312,0.453C13.221,4.19,13.04,4.14,12.854,4.108
		L12.81,3.561h-0.996l-0.043,0.548c-0.174,0.03-0.344,0.075-0.508,0.134l-0.306-0.456l-0.868,0.49l0.232,0.495
		c-0.146,0.12-0.278,0.254-0.4,0.396l-0.492-0.24L8.925,5.787l0.451,0.313C9.311,6.274,9.26,6.455,9.228,6.641L8.68,6.683
		L8.675,7.677l0.548,0.046c0.031,0.187,0.08,0.368,0.143,0.541L8.913,8.575L9.41,9.438l0.493-0.234
		c0.119,0.142,0.25,0.273,0.392,0.392l-0.237,0.493l0.861,0.501l0.312-0.453c0.174,0.065,0.354,0.114,0.54,0.146l0.043,0.547h0.996
		l0.043-0.547c0.174-0.031,0.344-0.076,0.508-0.133l0.307,0.454l0.868-0.489l-0.231-0.496c0.145-0.119,0.278-0.252,0.399-0.396
		l0.492,0.24l0.504-0.86L15.25,8.29c0.063-0.173,0.114-0.353,0.149-0.541L15.945,7.709z M12.312,8.661
		c-0.81,0-1.466-0.657-1.466-1.466c0-0.81,0.656-1.466,1.466-1.466c0.809,0,1.466,0.656,1.466,1.466
		C13.778,8.004,13.122,8.661,12.312,8.661z"/>
	<path fill="#FFFFFF" d="M10.62,12.688l0.003-0.687l-0.377-0.033c-0.021-0.128-0.056-0.253-0.099-0.373l0.313-0.214l-0.343-0.596
		l-0.341,0.162c-0.082-0.098-0.172-0.188-0.27-0.271l0.164-0.34L9.076,9.992L8.86,10.305c-0.12-0.044-0.245-0.079-0.374-0.101
		L8.458,9.826H7.771L7.74,10.204c-0.121,0.021-0.237,0.052-0.35,0.092L7.179,9.982L6.581,10.32l0.159,0.342
		c-0.1,0.083-0.191,0.174-0.275,0.272L6.125,10.77l-0.348,0.593l0.311,0.216c-0.044,0.12-0.08,0.244-0.103,0.373l-0.377,0.027
		l-0.003,0.688l0.377,0.031c0.022,0.129,0.055,0.253,0.099,0.373L5.77,13.285l0.341,0.596l0.341-0.162
		c0.083,0.098,0.172,0.188,0.27,0.27L6.558,14.33l0.595,0.346l0.215-0.313c0.119,0.045,0.244,0.079,0.372,0.101l0.031,0.378h0.687
		l0.029-0.378c0.121-0.02,0.237-0.051,0.351-0.092l0.211,0.314l0.598-0.339l-0.16-0.341c0.1-0.083,0.192-0.175,0.275-0.273
		l0.341,0.164l0.347-0.593l-0.311-0.216c0.044-0.119,0.079-0.244,0.102-0.373L10.62,12.688z M8.114,13.345
		c-0.559,0-1.012-0.452-1.012-1.011c0-0.557,0.454-1.011,1.012-1.011c0.558,0,1.011,0.454,1.011,1.011
		C9.125,12.893,8.672,13.345,8.114,13.345z"/>
	<path fill="#FFFFFF" d="M19.823,10.533l0.002-0.531l-0.293-0.024c-0.016-0.1-0.041-0.196-0.076-0.289l0.242-0.165l-0.264-0.46
		l-0.264,0.125c-0.064-0.076-0.133-0.146-0.209-0.209l0.127-0.262l-0.461-0.267l-0.164,0.24c-0.094-0.033-0.189-0.061-0.289-0.078
		l-0.023-0.292h-0.529l-0.021,0.292c-0.096,0.016-0.186,0.04-0.273,0.071l-0.164-0.244l-0.461,0.261l0.123,0.265
		c-0.076,0.062-0.146,0.134-0.213,0.21l-0.262-0.128l-0.269,0.458l0.241,0.167c-0.037,0.093-0.062,0.188-0.08,0.289l-0.292,0.022
		l-0.001,0.53l0.292,0.023c0.018,0.101,0.041,0.197,0.076,0.289l-0.241,0.166l0.265,0.46l0.264-0.125
		c0.062,0.076,0.131,0.145,0.207,0.209l-0.125,0.263l0.457,0.267l0.168-0.241c0.092,0.035,0.188,0.06,0.289,0.078l0.021,0.291h0.529
		l0.023-0.291c0.094-0.016,0.186-0.041,0.271-0.07l0.162,0.242l0.463-0.262l-0.123-0.264c0.076-0.064,0.148-0.134,0.213-0.211
		l0.264,0.128l0.266-0.458l-0.238-0.167c0.033-0.093,0.061-0.189,0.078-0.289L19.823,10.533z M17.888,11.04
		c-0.432,0-0.781-0.349-0.781-0.781c0-0.431,0.35-0.781,0.781-0.781c0.43,0,0.781,0.351,0.781,0.781
		C18.669,10.691,18.317,11.04,17.888,11.04z"/>
</g>
</svg>
