<?xml version="1.0" standalone="no"?><!DOCTYPE svg PUBLIC "-//W3C//DTD SVG 1.1//EN" "http://www.w3.org/Graphics/SVG/1.1/DTD/svg11.dtd"><svg t="1503904029706" class="icon" style="" viewBox="0 0 1024 1024" version="1.1" xmlns="http://www.w3.org/2000/svg" p-id="5546" xmlns:xlink="http://www.w3.org/1999/xlink" width="200" height="200"><defs><style type="text/css"></style></defs><path d="M511.999488 691.445952c86.90477 0 157.601752-70.90591 157.601752-158.071132L669.60124 223.703945c0-87.171362-70.696982-158.112064-157.601752-158.112064-86.882256 0-157.571051 70.940702-157.571051 158.112064l0 309.670875C354.428437 620.539019 425.116209 691.445952 511.999488 691.445952L511.999488 691.445952zM762.328861 423.555645c-9.44448 0-17.132894 7.710612-17.132894 17.21201l0 98.109482c0 128.984676-104.619949 233.94724-233.196478 233.94724-128.571412 0-233.183174-104.962563-233.183174-233.94724l0-98.109482c0-9.501398-7.687391-17.21201-17.157455-17.21201-9.466994 0-17.146198 7.710612-17.146198 17.21201l0 98.109482c0 142.151557 110.848046 258.538311 250.344722 267.485077l0.017397 117.644397L348.17271 924.006612c-9.468017 0-17.150291 7.702426-17.150291 17.209964 0 9.486048 7.682274 17.192567 17.150291 17.192567l327.701654 0c9.463923 0 17.152338-7.706519 17.152338-17.192567 0-9.507538-7.688414-17.209964-17.152338-17.209964L529.175363 924.006612l-0.019444-117.644397c139.49156-8.945743 250.329372-125.33352 250.329372-267.485077l0-98.109482C779.486315 431.267281 771.817344 423.555645 762.328861 423.555645L762.328861 423.555645zM762.328861 423.555645" p-id="5547" fill="#ffffff"></path></svg>