<?xml version="1.0" encoding="utf-8"?>
<!-- Generator: Adobe Illustrator 18.0.0, SVG Export Plug-In . SVG Version: 6.00 Build 0)  -->
<!DOCTYPE svg PUBLIC "-//W3C//DTD SVG 1.1//EN" "http://www.w3.org/Graphics/SVG/1.1/DTD/svg11.dtd">
<svg width="24" height="24" viewBox="0 0 24 24" version="1.1" xmlns="http://www.w3.org/2000/svg" xmlns:xlink="http://www.w3.org/1999/xlink"><g fill="#657786"><path d="M19.25 3.018H4.75A2.753 2.753 0 0 0 2 5.77v12.495a2.754 2.754 0 0 0 2.75 2.753h14.5A2.754 2.754 0 0 0 22 18.265V5.77a2.753 2.753 0 0 0-2.75-2.752zm-14.5 1.5h14.5c.69 0 1.25.56 1.25 1.25v.714l-8.05 5.367a.81.81 0 0 1-.9-.002L3.5 6.482v-.714c0-.69.56-1.25 1.25-1.25zm14.5 14.998H4.75c-.69 0-1.25-.56-1.25-1.25V8.24l7.24 4.83a2.265 2.265 0 0 0 2.52.001l7.24-4.83v10.022c0 .69-.56 1.25-1.25 1.25z"></path></g></svg>