<?xml version="1.0" standalone="no"?><!DOCTYPE svg PUBLIC "-//W3C//DTD SVG 1.1//EN" "http://www.w3.org/Graphics/SVG/1.1/DTD/svg11.dtd"><svg t="1492411602083" class="icon" viewBox="0 0 1024 1024" version="1.1" xmlns="http://www.w3.org/2000/svg" p-id="1557" xmlns:xlink="http://www.w3.org/1999/xlink" width="200" height="200"><defs></defs><path d="M512.150426 203.558116c-169.751149 0-447.065082 216.658482-447.065082 309.50203 0 92.850711 277.313933 309.50203 447.065082 309.50203 169.737846 0 447.050756-216.651318 447.050756-309.50203C959.201182 420.216597 681.887248 203.558116 512.150426 203.558116zM512.150426 753.790882c-132.947941 0-240.71641-107.775632-240.71641-240.723573s107.768469-240.723573 240.71641-240.723573c132.955104 0 240.723573 107.775632 240.723573 240.723573S645.10553 753.790882 512.150426 753.790882z" p-id="1558" fill="#333"></path><path d="M511.674589 357.817432c85.525885 0 154.858974 69.333088 154.858974 154.858974s-69.333088 154.858974-154.858974 154.858974-154.858974-69.333088-154.858974-154.858974S426.148703 357.817432 511.674589 357.817432z" p-id="1559" fill="#333"></path></svg>