<?xml version="1.0" encoding="utf-8"?>
<!-- Generator: Adobe Illustrator 16.0.0, SVG Export Plug-In . SVG Version: 6.00 Build 0)  -->
<!DOCTYPE svg PUBLIC "-//W3C//DTD SVG 1.1//EN" "http://www.w3.org/Graphics/SVG/1.1/DTD/svg11.dtd">
<svg version="1.1" id="图层_1" xmlns="http://www.w3.org/2000/svg" xmlns:xlink="http://www.w3.org/1999/xlink" x="0px" y="0px"
	 width="30px" height="30px" viewBox="0 0 30 30" enable-background="new 0 0 30 30" xml:space="preserve">
<g>
	<g>
		<path fill-rule="evenodd" clip-rule="evenodd" fill="#FFFFFF" d="M28.497,14.537c0-0.675,0.074-1.365-0.213-1.759
			c-0.145-0.088-0.286-0.178-0.427-0.266h-0.267v-0.053h-0.32v-0.053h-0.32c-0.789-0.237-1.769-0.293-2.559-0.533h-0.319v-0.053
			c-0.204-0.063-0.432-0.006-0.587-0.106v-0.054c-0.055-0.036-0.107-0.072-0.161-0.106v-0.106h-0.053
			c0.032-0.419,0.254-0.543,0.427-0.801V10.54c0.053-0.035,0.106-0.07,0.159-0.107v-0.106c0.038-0.017,0.071-0.035,0.106-0.053
			v-0.106c0.038-0.017,0.073-0.035,0.108-0.053v-0.106c0.036-0.017,0.071-0.036,0.106-0.053V9.847
			c0.036-0.017,0.071-0.036,0.104-0.053V9.687c0.038-0.017,0.073-0.036,0.108-0.053V9.527c0.036-0.017,0.071-0.036,0.107-0.053
			V9.368c0.036-0.018,0.071-0.036,0.106-0.053V9.208c0.036-0.017,0.07-0.037,0.107-0.054V9.048c0.035-0.018,0.069-0.036,0.106-0.053
			V8.888h0.053c0.017-0.053,0.036-0.106,0.054-0.16c0.035-0.018,0.069-0.036,0.106-0.053V8.567c0.053-0.035,0.106-0.071,0.159-0.106
			V8.354c0.035-0.018,0.07-0.035,0.106-0.053c0.019-0.071,0.035-0.142,0.054-0.213c0.053-0.035,0.106-0.071,0.159-0.107V7.875
			c0.035-0.018,0.071-0.035,0.106-0.053c0.089-0.133,0.384-0.714,0.213-0.905V6.704c-0.035-0.019-0.071-0.037-0.106-0.054V6.543
			c-0.088-0.071-0.178-0.142-0.266-0.213c-0.267-0.268-0.532-0.533-0.799-0.799c-0.338-0.338-0.676-0.675-1.015-1.014
			c-0.197-0.197-0.341-0.438-0.64-0.534c-0.529-0.169-0.989,0.324-1.225,0.48h-0.106v0.053c-0.053,0.019-0.106,0.035-0.159,0.053
			c-0.019,0.035-0.038,0.072-0.054,0.106h-0.107c-0.037,0.053-0.07,0.106-0.105,0.16h-0.107c-0.018,0.035-0.037,0.072-0.054,0.107
			c-0.053,0.019-0.106,0.035-0.159,0.053V5.05H20.82c-0.018,0.036-0.037,0.072-0.054,0.106H20.66
			c-0.017,0.036-0.036,0.072-0.053,0.106h-0.106c-0.018,0.036-0.037,0.072-0.054,0.106h-0.106c-0.017,0.036-0.036,0.072-0.053,0.106
			h-0.106c-0.018,0.037-0.037,0.072-0.054,0.107h-0.106c-0.02,0.036-0.036,0.071-0.053,0.108h-0.106
			c-0.02,0.035-0.037,0.07-0.054,0.106h-0.109c-0.034,0.053-0.07,0.106-0.106,0.16c-0.07,0.018-0.141,0.035-0.213,0.053
			c-0.018,0.035-0.034,0.071-0.054,0.107H19.22c-0.033,0.053-0.07,0.106-0.106,0.16h-0.106c-0.017,0.035-0.033,0.071-0.053,0.106
			h-0.106c-0.018,0.036-0.034,0.071-0.054,0.107h-0.159v0.053c-0.658,0.006-0.546-0.484-0.693-0.96V5.316
			c-0.162-0.517-0.213-1.186-0.372-1.706V3.292h-0.054c-0.07-0.461-0.142-0.924-0.216-1.385c-0.067-0.058-0.054-0.094-0.106-0.16
			H17.14V1.641h-0.053c-0.015-0.036-0.033-0.073-0.054-0.107c-0.093-0.073-0.075,0.024-0.159-0.106c-0.894-0.09-2-0.053-2.984-0.053
			c-0.703,0-1.244-0.036-1.385,0.534c-0.12,0.127-0.045,0.335-0.106,0.533h-0.053v0.266h-0.053v0.32h-0.053v0.319
			c-0.213,0.703-0.258,1.587-0.479,2.292c-0.019,0.194-0.037,0.39-0.053,0.586h-0.053V6.33H11.6
			c-0.019,0.053-0.037,0.106-0.053,0.16c-0.308,0.05-0.512,0.054-0.747-0.107c-0.036-0.053-0.072-0.106-0.108-0.16h-0.106
			c-0.017-0.036-0.034-0.072-0.053-0.106h-0.106c-0.017-0.036-0.034-0.072-0.053-0.107h-0.106c-0.017-0.036-0.034-0.072-0.054-0.106
			c-0.053-0.019-0.106-0.037-0.16-0.053V5.797H9.946C9.93,5.761,9.912,5.726,9.893,5.691H9.787C9.77,5.654,9.752,5.619,9.733,5.583
			H9.627c-0.019-0.035-0.035-0.07-0.054-0.107H9.467C9.448,5.441,9.432,5.406,9.414,5.37H9.307c-0.019-0.035-0.035-0.07-0.053-0.106
			H9.147c-0.019-0.035-0.035-0.07-0.053-0.106H8.988C8.969,5.122,8.952,5.086,8.934,5.05H8.828C8.809,5.016,8.792,4.979,8.774,4.944
			H8.668C8.649,4.909,8.631,4.872,8.615,4.837H8.508C8.471,4.784,8.437,4.73,8.402,4.677H8.295C8.276,4.643,8.257,4.606,8.242,4.571
			C8.189,4.553,8.136,4.536,8.083,4.518V4.464H7.976C7.957,4.43,7.938,4.394,7.921,4.357H7.814C7.798,4.323,7.778,4.287,7.761,4.25
			H7.654C7.638,4.217,7.618,4.18,7.601,4.144H7.494V4.09c-0.11-0.062-0.117,0-0.213-0.106H6.749C6.332,4.121,5.877,4.751,5.577,5.05
			c-0.373,0.373-0.746,0.747-1.12,1.12C4.277,6.349,4.024,6.504,3.924,6.757c-0.1,0.25-0.006,0.728,0.106,0.905
			C4.067,7.68,4.102,7.697,4.137,7.715v0.106c0.053,0.036,0.106,0.071,0.16,0.106v0.107C4.333,8.053,4.368,8.07,4.403,8.088
			C4.421,8.16,4.439,8.23,4.457,8.301c0.053,0.035,0.106,0.071,0.16,0.106v0.106C4.653,8.532,4.688,8.55,4.725,8.567
			c0.017,0.053,0.035,0.108,0.053,0.161h0.053v0.106c0.035,0.017,0.07,0.035,0.106,0.053v0.106c0.035,0.017,0.07,0.035,0.106,0.053
			v0.106c0.035,0.017,0.07,0.037,0.106,0.054v0.106C5.185,9.332,5.22,9.35,5.257,9.368v0.106C5.292,9.491,5.329,9.51,5.364,9.527
			v0.106C5.398,9.651,5.435,9.67,5.47,9.687v0.106C5.523,9.83,5.577,9.865,5.63,9.9v0.106c0.035,0.018,0.071,0.036,0.106,0.053
			c0.018,0.071,0.035,0.143,0.054,0.213c0.034,0.018,0.07,0.036,0.107,0.053v0.106c0.053,0.037,0.106,0.072,0.16,0.107v0.106
			c0.034,0.018,0.07,0.036,0.106,0.055c0.017,0.051,0.034,0.106,0.053,0.16H6.27v0.106c0.035,0.016,0.07,0.034,0.106,0.054
			c0.037,0.059,0.139,0.317,0.106,0.426H6.429c-0.019,0.069-0.036,0.141-0.053,0.212c-0.152,0.034-0.293,0.118-0.426,0.16H5.683
			c-0.25,0.077-0.61,0.139-0.852,0.213H4.51c-0.439,0.13-1.005,0.184-1.438,0.32H2.806v0.053H2.484
			c-0.247,0.075-0.642,0.096-0.799,0.266c-0.229,0.062-0.224,0.186-0.32,0.373H1.312v0.16H1.259v3.571h0.053
			c0.035,0.105,0.07,0.213,0.106,0.32h0.053c0.053,0.072,0.106,0.141,0.16,0.213c0.15,0.033,0.293,0.117,0.426,0.16h0.32v0.053
			h0.268v0.053h0.32c0.687,0.209,1.553,0.27,2.238,0.479h0.373v0.055c0.23,0.037,0.461,0.072,0.693,0.107v0.053
			c0.29,0.18,0.229,0.48,0.053,0.746c-0.036,0.018-0.072,0.035-0.106,0.053v0.107c-0.036,0.018-0.072,0.033-0.106,0.053v0.107H6.057
			c-0.019,0.053-0.036,0.107-0.053,0.16c-0.036,0.018-0.073,0.033-0.106,0.053v0.105c-0.054,0.035-0.107,0.072-0.161,0.107v0.105
			C5.701,19.885,5.665,19.9,5.63,19.92c-0.019,0.053-0.035,0.105-0.053,0.158H5.523v0.107c-0.035,0.018-0.072,0.035-0.106,0.053
			v0.107c-0.037,0.018-0.072,0.035-0.106,0.053v0.105c-0.035,0.02-0.072,0.037-0.107,0.055v0.107H5.15
			c-0.019,0.051-0.037,0.107-0.053,0.16c-0.037,0.018-0.072,0.035-0.106,0.053v0.107c-0.053,0.035-0.106,0.07-0.16,0.105
			c-0.019,0.07-0.037,0.143-0.053,0.213c-0.037,0.018-0.072,0.037-0.108,0.055v0.105c-0.053,0.035-0.106,0.07-0.16,0.107
			c-0.017,0.07-0.035,0.141-0.053,0.213c-0.053,0.035-0.106,0.07-0.16,0.107v0.105c-0.035,0.018-0.07,0.035-0.106,0.053v0.107
			c-0.035,0.018-0.07,0.035-0.106,0.053v0.107c-0.035,0.016-0.07,0.035-0.107,0.053c-0.017,0.105-0.035,0.213-0.053,0.32H3.871
			c0.018,0.178,0.036,0.355,0.053,0.533c0.106,0.143,0.213,0.283,0.32,0.426c0.409,0.391,0.817,0.783,1.227,1.172
			c0.176,0.176,0.375,0.516,0.64,0.586c0.047,0.197,0.332,0.436,0.532,0.479c0.177,0.156,0.726,0.061,0.906-0.053v-0.053
			c0.053-0.018,0.106-0.035,0.16-0.053c0.017-0.035,0.037-0.07,0.053-0.107H7.87c0.015-0.035,0.034-0.07,0.051-0.107
			c0.055-0.016,0.106-0.035,0.162-0.053v-0.053h0.106c0.015-0.035,0.034-0.07,0.053-0.107h0.107c0.016-0.035,0.035-0.07,0.053-0.105
			h0.106c0.016-0.035,0.035-0.07,0.053-0.107h0.106c0.035-0.053,0.071-0.105,0.106-0.16c0.071-0.016,0.141-0.033,0.213-0.053
			c0.035-0.053,0.071-0.105,0.106-0.16h0.106c0.019-0.033,0.035-0.07,0.053-0.105c0.053-0.018,0.106-0.035,0.16-0.053v-0.055H9.52
			c0.019-0.033,0.035-0.07,0.053-0.107H9.68c0.019-0.033,0.035-0.07,0.053-0.105H9.84c0.019-0.035,0.037-0.07,0.053-0.107H10
			c0.019-0.033,0.037-0.07,0.053-0.105h0.106c0.02-0.035,0.037-0.07,0.053-0.107h0.107c0.019-0.035,0.037-0.07,0.053-0.105h0.106
			c0.019-0.037,0.037-0.07,0.053-0.107h0.106c0.019-0.035,0.037-0.07,0.053-0.105c0.055-0.018,0.108-0.035,0.16-0.053v-0.055h0.108
			l0.053-0.105h0.16v-0.053c0.246,0.01,0.276,0.076,0.427,0.158c0.059,0.143,0.112,0.379,0.16,0.533v0.266
			c0.243,0.783,0.293,1.773,0.533,2.559v0.32h0.053v0.268h0.053v0.266h0.053v0.266c0.106,0.143,0.213,0.285,0.32,0.426
			c0.149,0.035,0.255,0.123,0.373,0.16h1.173c0.934,0,2.503,0.182,2.876-0.373v-0.105h0.053V28.02H17.3v-0.213h0.057v-0.318h0.051
			v-0.268h0.053V26.9c0.213-0.699,0.263-1.59,0.481-2.291v-0.268h0.054c0.036-0.248,0.07-0.496,0.106-0.744h0.053
			c0.18-0.291,0.482-0.23,0.746-0.055c0.02,0.037,0.036,0.072,0.054,0.107h0.106c0.02,0.035,0.036,0.07,0.053,0.105h0.106
			c0.02,0.037,0.036,0.07,0.054,0.107h0.106c0.02,0.035,0.036,0.07,0.053,0.105h0.109c0.017,0.037,0.033,0.072,0.051,0.107
			c0.057,0.018,0.106,0.035,0.163,0.053v0.053h0.106c0.017,0.037,0.033,0.072,0.053,0.107h0.106
			c0.017,0.035,0.036,0.072,0.054,0.105h0.106c0.017,0.037,0.033,0.074,0.053,0.107h0.106v0.055c0.054,0.018,0.106,0.035,0.16,0.053
			c0.017,0.035,0.036,0.072,0.053,0.105h0.106c0.036,0.055,0.07,0.107,0.106,0.16c0.07,0.02,0.144,0.037,0.214,0.053
			c0.036,0.055,0.07,0.107,0.106,0.16h0.106c0.017,0.037,0.036,0.072,0.055,0.107c0.068,0.018,0.142,0.035,0.213,0.053
			c0.035,0.053,0.068,0.105,0.106,0.16h0.106c0.016,0.035,0.035,0.07,0.054,0.105h0.106c0.017,0.037,0.034,0.072,0.053,0.107h0.106
			c0.016,0.037,0.035,0.072,0.054,0.107h0.107c0.017,0.035,0.034,0.07,0.053,0.105c0.07,0.02,0.141,0.037,0.213,0.053v0.055
			c0.202,0.078,0.443,0.004,0.691,0c0.169-0.199,0.457-0.236,0.533-0.533c0.271-0.072,0.413-0.357,0.587-0.533
			c0.357-0.354,0.711-0.711,1.066-1.064c0.179-0.178,0.408-0.301,0.479-0.586h0.053V23.01c0.094-0.277-0.02-0.588-0.159-0.799
			c-0.035-0.018-0.071-0.035-0.106-0.053v-0.107h-0.054c-0.018-0.053-0.035-0.105-0.053-0.158c-0.035-0.018-0.071-0.037-0.106-0.055
			V21.73c-0.035-0.018-0.071-0.035-0.106-0.053v-0.105c-0.054-0.037-0.106-0.072-0.16-0.107c-0.018-0.072-0.036-0.143-0.053-0.213
			c-0.037-0.018-0.071-0.035-0.106-0.053v-0.107c-0.054-0.035-0.106-0.07-0.16-0.105v-0.107c-0.036-0.018-0.07-0.035-0.106-0.053
			c-0.018-0.053-0.036-0.109-0.054-0.16h-0.055v-0.107c-0.035-0.018-0.069-0.035-0.106-0.055c-0.017-0.053-0.035-0.105-0.053-0.158
			h-0.054v-0.107c-0.035-0.018-0.069-0.035-0.106-0.053v-0.107c-0.035-0.016-0.069-0.035-0.107-0.053V19.92
			c-0.035-0.02-0.068-0.035-0.106-0.055V19.76c-0.034-0.02-0.068-0.035-0.106-0.053V19.6h-0.054
			c-0.015-0.053-0.035-0.105-0.053-0.158c-0.054-0.037-0.106-0.074-0.16-0.107c-0.015-0.072-0.035-0.143-0.053-0.213
			c-0.035-0.02-0.068-0.037-0.106-0.055v-0.105c-0.055-0.037-0.107-0.072-0.161-0.107v-0.16h-0.053
			c0.014-0.246,0.079-0.275,0.159-0.426c0.208-0.082,0.528-0.148,0.748-0.215h0.372c0.703-0.209,1.58-0.264,2.293-0.479h0.268
			v-0.053h0.266v-0.053h0.32v-0.055h0.213v-0.053h0.106c0.106-0.088,0.214-0.178,0.32-0.266
			C28.632,16.674,28.497,15.251,28.497,14.537z M19.868,16.02v0.281h-0.056v0.168h-0.056v0.166h-0.055v0.168h-0.057v0.166H19.59
			c-0.035,0.113-0.073,0.225-0.11,0.336h-0.057v0.109h-0.056c-0.02,0.074-0.037,0.15-0.056,0.225
			c-0.038,0.02-0.074,0.037-0.112,0.057v0.111c-0.036,0.018-0.074,0.037-0.11,0.055v0.111c-0.057,0.037-0.112,0.074-0.169,0.111
			v0.113c-0.101,0.143-0.213,0.092-0.277,0.334h-0.11v0.111c-0.038,0.018-0.074,0.037-0.114,0.055v0.055h-0.11
			c-0.074,0.094-0.149,0.188-0.224,0.279h-0.112c-0.036,0.057-0.075,0.113-0.111,0.17h-0.11c-0.019,0.037-0.038,0.072-0.055,0.109
			h-0.111c-0.019,0.037-0.039,0.074-0.058,0.113l-0.223,0.055v0.057h-0.111c-0.02,0.035-0.037,0.072-0.056,0.109h-0.112v0.057
			h-0.166c-0.932,0.412-2.183,0.592-3.29,0.223c-0.185-0.037-0.373-0.074-0.558-0.111v-0.055h-0.111v-0.057h-0.168v-0.057H12.62
			c-0.019-0.037-0.036-0.074-0.054-0.109c-0.113-0.037-0.224-0.074-0.337-0.111v-0.057c-0.056-0.02-0.111-0.039-0.166-0.057
			c-0.02-0.037-0.038-0.072-0.056-0.109h-0.111c-0.039-0.057-0.075-0.113-0.113-0.17h-0.111c-0.019-0.035-0.037-0.074-0.055-0.111
			c-0.131-0.092-0.262-0.186-0.392-0.277v-0.111h-0.111c-0.067-0.242-0.174-0.191-0.278-0.334v-0.113
			c-0.056-0.037-0.111-0.074-0.167-0.111v-0.111c-0.038-0.018-0.074-0.037-0.112-0.055v-0.111c-0.037-0.02-0.075-0.037-0.111-0.057
			c-0.02-0.074-0.038-0.15-0.057-0.225h-0.056v-0.109h-0.056c-0.036-0.111-0.074-0.223-0.111-0.336H10.11v-0.166h-0.055v-0.168H10
			v-0.166H9.944v-0.168H9.887v-0.223H9.832c-0.02-0.298-0.037-0.596-0.056-0.892H9.721v-0.393h0.056v-0.556h0.056v-0.334h0.055
			V13.68h0.057v-0.223H10V13.29h0.056v-0.169h0.055c0.037-0.11,0.074-0.221,0.113-0.333h0.054v-0.112h0.056
			c0.037-0.111,0.074-0.224,0.112-0.335c0.036-0.019,0.075-0.037,0.111-0.055c0.019-0.074,0.038-0.149,0.057-0.223
			c0.036-0.019,0.074-0.037,0.111-0.056c0.019-0.055,0.037-0.111,0.056-0.167c0.075-0.055,0.149-0.113,0.224-0.168v-0.112
			c0.037-0.018,0.073-0.037,0.11-0.055c0.111-0.131,0.223-0.261,0.335-0.391h0.111c0.057-0.074,0.112-0.147,0.167-0.221h0.112
			c0.038-0.056,0.075-0.113,0.112-0.168h0.111c0.019-0.038,0.037-0.075,0.055-0.111c0.076-0.019,0.149-0.038,0.224-0.056
			c0.018-0.038,0.037-0.075,0.055-0.112c0.074-0.019,0.149-0.037,0.223-0.055v-0.056c0.075-0.019,0.149-0.037,0.224-0.055v-0.057
			c0.111-0.018,0.222-0.037,0.333-0.056v-0.055h0.113v-0.056h0.223V10h0.223V9.945h0.278V9.888h0.502V9.833h0.725v0.056
			c0.26,0.02,0.521,0.037,0.78,0.057V10c0.149,0.019,0.298,0.037,0.447,0.055v0.056h0.11v0.055h0.169v0.056h0.165v0.057
			c0.075,0.018,0.149,0.036,0.225,0.055v0.056c0.074,0.018,0.149,0.037,0.224,0.055c0.018,0.037,0.036,0.075,0.056,0.112
			c0.074,0.018,0.149,0.037,0.224,0.056c0.019,0.036,0.036,0.073,0.056,0.111h0.11c0.036,0.056,0.075,0.112,0.111,0.168h0.112
			c0.055,0.074,0.11,0.147,0.167,0.221h0.111c0.018,0.039,0.037,0.075,0.057,0.111c0.13,0.113,0.26,0.224,0.389,0.335v0.112
			c0.076,0.055,0.15,0.113,0.224,0.168v0.111c0.056,0.036,0.112,0.074,0.168,0.111v0.11h0.055v0.113
			c0.038,0.018,0.074,0.036,0.112,0.055v0.111l0.111,0.113v0.111h0.057v0.112h0.056c0.036,0.111,0.073,0.222,0.11,0.333h0.057v0.224
			h0.055v0.112h0.056v0.223C20.042,14.355,20.088,15.311,19.868,16.02z"/>
	</g>
</g>
</svg>
