<?xml version="1.0" encoding="UTF-8"?>
<svg width="76px" height="22px" viewBox="0 0 76 22" version="1.1" xmlns="http://www.w3.org/2000/svg" xmlns:xlink="http://www.w3.org/1999/xlink">
    <!-- Generator: Sketch 41.1 (35376) - http://www.bohemiancoding.com/sketch -->
    <title>ioing</title>
    <desc>Created with Sketch.</desc>
    <defs></defs>
    <g id="Page-1" stroke="none" stroke-width="1" fill="none" fill-rule="evenodd">
        <g id="ioing" fill="#3f51b5">
            <path d="M0.96,1.008 L0.96,21 L4.236,21 L4.236,1.008 L0.96,1.008 Z M17.032,0.616 C13.952,0.616 11.544,1.596 9.808,3.612 C8.128,5.516 7.316,7.98 7.316,11.032 C7.316,14.056 8.128,16.52 9.808,18.424 C11.544,20.384 13.952,21.392 17.032,21.392 C20.084,21.392 22.492,20.412 24.256,18.452 C25.936,16.576 26.776,14.112 26.776,11.032 C26.776,7.952 25.936,5.46 24.256,3.584 C22.492,1.596 20.084,0.616 17.032,0.616 Z M17.032,3.5 C19.104,3.5 20.7,4.144 21.82,5.488 C22.912,6.832 23.472,8.68 23.472,11.032 C23.472,13.384 22.912,15.204 21.82,16.52 C20.7,17.836 19.104,18.508 17.032,18.508 C14.96,18.508 13.336,17.808 12.216,16.436 C11.124,15.092 10.592,13.3 10.592,11.032 C10.592,8.736 11.124,6.944 12.216,5.6 C13.364,4.2 14.96,3.5 17.032,3.5 Z M29.856,1.008 L29.856,21 L33.132,21 L33.132,1.008 L29.856,1.008 Z M37.052,1.008 L37.052,21 L40.328,21 L40.328,6.384 L40.44,6.384 L50.436,21 L53.628,21 L53.628,1.008 L50.324,1.008 L50.324,15.428 L50.212,15.428 L40.328,1.008 L37.052,1.008 Z M66.228,0.616 C63.26,0.616 60.908,1.624 59.172,3.696 C57.52,5.628 56.708,8.092 56.708,11.088 C56.708,14.056 57.52,16.492 59.172,18.368 C60.936,20.384 63.4,21.392 66.592,21.392 C68.384,21.392 69.98,21.168 71.436,20.72 C72.808,20.272 74.012,19.656 75.076,18.816 L75.076,10.36 L66.508,10.36 L66.508,13.16 L71.8,13.16 L71.8,17.276 C71.128,17.668 70.428,17.976 69.644,18.2 C68.804,18.424 67.908,18.536 66.956,18.536 C64.52,18.536 62.728,17.864 61.58,16.52 C60.516,15.26 59.984,13.44 59.984,11.088 C59.984,8.624 60.572,6.748 61.776,5.404 C62.868,4.116 64.352,3.5 66.228,3.5 C67.74,3.5 68.972,3.808 69.896,4.452 C70.792,5.096 71.408,6.048 71.688,7.336 L74.992,7.336 C74.628,5.096 73.732,3.444 72.304,2.324 C70.82,1.176 68.804,0.616 66.228,0.616 Z" id="IOING"></path>
        </g>
    </g>
</svg>