<?xml version="1.0" encoding="UTF-8" standalone="no"?>
<svg width="28px" height="20px" viewBox="0 0 28 20" version="1.1" xmlns="http://www.w3.org/2000/svg" xmlns:xlink="http://www.w3.org/1999/xlink" xmlns:sketch="http://www.bohemiancoding.com/sketch/ns">
    <!-- Generator: Sketch 3.5.2 (25235) - http://www.bohemiancoding.com/sketch -->
    <title>Untitled</title>
    <desc>Created with Sketch.</desc>
    <defs></defs>
    <g id="Page-1" stroke="none" stroke-width="1" fill="none" fill-rule="evenodd" sketch:type="MSPage">
        <path d="M27,17 L9,17 C8.447,17 8,17.448 8,18 C8,18.553 8.447,19 9,19 L27,19 C27.553,19 28,18.553 28,18 C28,17.448 27.553,17 27,17 L27,17 Z M2,0 C0.896,0 0,0.896 0,2 C0,3.104 0.896,4 2,4 C3.104,4 4,3.104 4,2 C4,0.896 3.104,0 2,0 L2,0 Z M9,3 L27,3 C27.553,3 28,2.553 28,2 C28,1.447 27.553,1 27,1 L9,1 C8.447,1 8,1.447 8,2 C8,2.553 8.447,3 9,3 L9,3 Z M27,9 L9,9 C8.447,9 8,9.448 8,10 C8,10.553 8.447,11 9,11 L27,11 C27.553,11 28,10.553 28,10 C28,9.448 27.553,9 27,9 L27,9 Z M2,8 C0.896,8 0,8.896 0,10 C0,11.104 0.896,12 2,12 C3.104,12 4,11.104 4,10 C4,8.896 3.104,8 2,8 L2,8 Z M2,16 C0.896,16 0,16.896 0,18 C0,19.104 0.896,20 2,20 C3.104,20 4,19.104 4,18 C4,16.896 3.104,16 2,16 L2,16 Z" id="Fill-193" fill="#6666cc" sketch:type="MSShapeGroup"></path>
    </g>
</svg>