<?xml version="1.0" encoding="UTF-8" standalone="no"?>
<svg width="6px" height="20px" viewBox="0 0 6 20" version="1.1" xmlns="http://www.w3.org/2000/svg" xmlns:xlink="http://www.w3.org/1999/xlink">
    <!-- Generator: Sketch 3.6.1 (26313) - http://www.bohemiancoding.com/sketch -->
    <title>Untitled</title>
    <desc>Created with Sketch.</desc>
    <defs></defs>
    <g id="Page-1" stroke="none" stroke-width="1" fill="none" fill-rule="evenodd">
        <g id="more" fill="#6666cc">
            <g id="Page-1">
                <path d="M3,11.4285714 C2.172,11.4285714 1.5,10.7885714 1.5,10 C1.5,9.21142857 2.172,8.57142857 3,8.57142857 C3.828,8.57142857 4.5,9.21142857 4.5,10 C4.5,10.7885714 3.828,11.4285714 3,11.4285714 L3,11.4285714 L3,11.4285714 Z M3,7.14285714 C1.34325,7.14285714 0,8.42214286 0,10 C0,11.5778571 1.34325,12.8571429 3,12.8571429 C4.65675,12.8571429 6,11.5778571 6,10 C6,8.42214286 4.65675,7.14285714 3,7.14285714 L3,7.14285714 L3,7.14285714 Z M3,18.5714286 C2.172,18.5714286 1.5,17.9314286 1.5,17.1428571 C1.5,16.3542857 2.172,15.7142857 3,15.7142857 C3.828,15.7142857 4.5,16.3542857 4.5,17.1428571 C4.5,17.9314286 3.828,18.5714286 3,18.5714286 L3,18.5714286 L3,18.5714286 Z M3,14.2857143 C1.34325,14.2857143 0,15.565 0,17.1428571 C0,18.7207143 1.34325,20 3,20 C4.65675,20 6,18.7207143 6,17.1428571 C6,15.565 4.65675,14.2857143 3,14.2857143 L3,14.2857143 L3,14.2857143 Z M3,4.28571429 C2.172,4.28571429 1.5,3.64571429 1.5,2.85714286 C1.5,2.06857143 2.172,1.42857143 3,1.42857143 C3.828,1.42857143 4.5,2.06857143 4.5,2.85714286 C4.5,3.64571429 3.828,4.28571429 3,4.28571429 L3,4.28571429 L3,4.28571429 Z M0,2.85714286 C0,4.435 1.34325,5.71428571 3,5.71428571 C4.65675,5.71428571 6,4.435 6,2.85714286 C6,1.27928571 4.65675,0 3,0 C1.34325,0 0,1.27928571 0,2.85714286 L0,2.85714286 Z" id="Fill-61"></path>
            </g>
        </g>
    </g>
</svg>