<?xml version="1.0" encoding="utf-8"?>
<!-- Generator: Adobe Illustrator 18.0.0, SVG Export Plug-In . SVG Version: 6.00 Build 0)  -->
<!DOCTYPE svg PUBLIC "-//W3C//DTD SVG 1.1//EN" "http://www.w3.org/Graphics/SVG/1.1/DTD/svg11.dtd">
<svg fill="#666666" version="1.1" id="图层_1" xmlns="http://www.w3.org/2000/svg" xmlns:xlink="http://www.w3.org/1999/xlink" x="0px" y="0px"
	 viewBox="0 0 54 54" enable-background="new 0 0 54 54" xml:space="preserve">
<path d="M44.6,28.5c0-0.1,0.1-0.1,0.1-0.2c0.6-1.3,0.4-2.9-0.7-3.9L19.2,0.9c-1.4-1.3-3.5-1.2-4.8,0.1s-1.2,3.5,0.1,4.8l22.2,21
	L14.7,48.2c-1.3,1.3-1.4,3.4-0.1,4.8c0.7,0.7,1.5,1,2.4,1c0.8,0,1.7-0.3,2.3-0.9l24.6-23.7c0,0,0.1-0.1,0.1-0.2c0,0,0.1-0.1,0.1-0.1
	C44.3,28.9,44.4,28.7,44.6,28.5L44.6,28.5z"/>
</svg>
