<?xml version="1.0" encoding="utf-8"?>
<!-- Generator: Adobe Illustrator 16.0.0, SVG Export Plug-In . SVG Version: 6.00 Build 0)  -->
<!DOCTYPE svg PUBLIC "-//W3C//DTD SVG 1.1//EN" "http://www.w3.org/Graphics/SVG/1.1/DTD/svg11.dtd">
<svg version="1.1" id="图层_1" xmlns="http://www.w3.org/2000/svg" xmlns:xlink="http://www.w3.org/1999/xlink" x="0px" y="0px"
	 width="30px" height="30px" viewBox="0 0 30 30" enable-background="new 0 0 30 30" xml:space="preserve">
<g>
	<path fill="#70A9DC" d="M15.232,0.845c-4.973,0-9.004,3.979-9.004,8.887s4.032,8.887,9.004,8.887c4.974,0,9.005-3.979,9.005-8.887
		S20.206,0.845,15.232,0.845z M15.232,15.996c-3.506,0-6.347-2.803-6.347-6.264c0-3.459,2.841-6.265,6.347-6.265
		s6.346,2.805,6.346,6.265C21.578,13.193,18.738,15.996,15.232,15.996z"/>
	<path fill="#70A9DC" d="M16.688,27.717c0,0.795-0.651,1.438-1.455,1.438l0,0c-0.805,0-1.457-0.643-1.457-1.438v-10.02
		c0-0.795,0.651-1.438,1.457-1.438l0,0c0.804,0,1.455,0.643,1.455,1.438V27.717z"/>
	<path fill="#70A9DC" d="M22.074,22.49c0,0.697-0.574,1.262-1.28,1.262H9.671c-0.708,0-1.281-0.564-1.281-1.262l0,0
		c0-0.699,0.573-1.264,1.281-1.264h11.123C21.5,21.227,22.074,21.791,22.074,22.49L22.074,22.49z"/>
</g>
</svg>
