<?xml version="1.0" encoding="utf-8"?>
<!-- Generator: Adobe Illustrator 16.0.0, SVG Export Plug-In . SVG Version: 6.00 Build 0)  -->
<!DOCTYPE svg PUBLIC "-//W3C//DTD SVG 1.1//EN" "http://www.w3.org/Graphics/SVG/1.1/DTD/svg11.dtd">
<svg version="1.1" id="图层_1" xmlns="http://www.w3.org/2000/svg" xmlns:xlink="http://www.w3.org/1999/xlink" x="0px" y="0px"
	 width="30px" height="30px" viewBox="0 0 30 30" enable-background="new 0 0 30 30" xml:space="preserve">
<g>
	<path fill="#E376A4" d="M18.826,11.159C14.512,7.893,8.367,8.741,5.101,13.056S2.683,23.515,6.998,26.781
		c4.314,3.267,10.458,2.417,13.725-1.896C23.989,20.569,23.142,14.425,18.826,11.159z M8.743,24.477
		c-3.041-2.303-3.64-6.636-1.336-9.676c2.301-3.041,6.634-3.64,9.675-1.336c3.04,2.303,3.64,6.635,1.337,9.675
		C16.116,26.181,11.784,26.779,8.743,24.477z"/>
	<path fill="#E376A4" d="M19.381,13.21c-0.465,0.614-1.429,0.669-2.152,0.122l0,0c-0.723-0.547-0.931-1.489-0.466-2.104L22.64,3.47
		c0.466-0.615,1.429-0.67,2.15-0.123l0,0c0.722,0.547,0.931,1.489,0.466,2.104L19.381,13.21z"/>
	<path fill="#E376A4" d="M27.527,8.238c0.13,0.943-0.529,1.814-1.473,1.943l0,0c-0.942,0.13-1.812-0.528-1.943-1.472l-0.763-5.517
		c-0.13-0.943,0.529-1.814,1.473-1.944l0,0c0.942-0.13,1.812,0.529,1.943,1.472L27.527,8.238z"/>
	<path fill="#E376A4" d="M19.341,2.039c-0.943,0.13-1.603,1-1.472,1.944l0,0c0.13,0.943,0.999,1.603,1.942,1.472l5.519-0.762
		c0.942-0.13,1.602-1,1.471-1.943l0,0c-0.131-0.944-1-1.603-1.944-1.472L19.341,2.039z"/>
</g>
</svg>
