<?xml version="1.0" standalone="no"?><!DOCTYPE svg PUBLIC "-//W3C//DTD SVG 1.1//EN" "http://www.w3.org/Graphics/SVG/1.1/DTD/svg11.dtd"><svg t="1503993991241" class="icon" style="" viewBox="0 0 1024 1024" version="1.1" xmlns="http://www.w3.org/2000/svg" p-id="2373" xmlns:xlink="http://www.w3.org/1999/xlink" width="200" height="200"><defs><style type="text/css"></style></defs><path d="M511.82 15.47C230.58 15.47 2.556 243.492 2.556 524.734c0 225.032 145.905 415.879 348.274 483.23 25.463 4.71 34.821-11.076 34.821-24.508 0-12.16-0.51-52.264-0.7-94.787-141.703 30.81-171.559-60.094-171.559-60.094-23.172-58.884-56.528-74.544-56.528-74.544-46.216-31.638 3.5-30.937 3.5-30.937 51.118 3.565 78.045 52.454 78.045 52.454 45.452 77.855 119.168 55.32 148.196 42.334 4.583-32.912 17.76-55.383 32.339-68.115-113.12-12.859-232.034-56.528-232.034-251.704 0-55.574 19.925-101.026 52.455-136.674-5.284-12.86-22.726-64.613 4.901-134.765 0 0 42.779-13.686 140.112 52.2 40.614-11.267 84.156-16.932 127.444-17.124 43.288 0.192 86.893 5.857 127.571 17.124 97.206-65.886 139.921-52.2 139.921-52.2 27.692 70.152 10.313 121.97 5.029 134.765 32.656 35.649 52.39 81.1 52.39 136.674 0 195.62-119.168 238.654-232.543 251.258 18.27 15.788 34.566 46.789 34.566 94.278 0 68.115-0.573 122.988-0.573 139.73 0 13.559 9.167 29.41 35.012 24.444 202.242-67.414 347.956-258.26 347.956-483.165 0-281.242-228.023-509.266-509.266-509.266l-0.063 0.126z" p-id="2374" fill="#ffffff"></path></svg>