<?xml version="1.0" encoding="UTF-8"?>
<svg width="1010px" height="1010px" viewBox="0 0 1010 1010" version="1.1" xmlns="http://www.w3.org/2000/svg" xmlns:xlink="http://www.w3.org/1999/xlink">
    <!-- Generator: Sketch 41.1 (35376) - http://www.bohemiancoding.com/sketch -->
    <title>Untitled</title>
    <desc>Created with Sketch.</desc>
    <defs></defs>
    <g id="Page-1" stroke="none" stroke-width="1" fill="none" fill-rule="evenodd">
        <g id="homescreen" fill="#FFFFFF">
            <path d="M126.078296,504.999997 C126.078293,640.375685 198.300361,765.46798 315.539146,833.155825 C432.77793,900.84367 577.222069,900.84367 694.460853,833.155825 C811.699638,765.46798 883.921706,640.375685 883.921703,504.999997 C883.921703,295.727319 714.272678,126.078294 504.999999,126.078294 C295.727321,126.078294 126.078296,295.727319 126.078296,504.999997 L126.078296,504.999997 Z" id="Shape"></path>
            <path d="M970.006709,308.536466 C944.584713,248.432576 908.202085,194.463408 861.868826,148.131173 C815.535569,101.797915 761.5664,65.414263 701.463534,39.993291 C639.209678,13.661575 573.109214,0.310499 505,0.310499 C436.890786,0.310499 370.789299,13.661575 308.536466,39.993291 C248.432576,65.415287 194.463408,101.797915 148.131173,148.131174 C101.797915,194.464432 65.414263,248.432578 39.99329,308.536467 C13.661575,370.789299 0.310499,436.889763 0.310499,505 C0.310499,573.110237 13.661575,639.210701 39.992267,701.463534 C65.414263,761.567424 101.796891,815.536592 148.13015,861.869851 C194.463408,908.202086 248.431554,944.585738 308.535443,970.007734 C370.788276,996.338426 436.888739,1009.6895 504.998977,1009.6895 C573.109215,1009.6895 639.208655,996.338426 701.462511,970.007734 C761.565377,944.585738 815.534546,908.20311 861.867804,861.869851 C908.200039,815.536593 944.583691,761.567424 970.005687,701.463534 C996.336379,639.210701 1009.68745,573.110238 1009.68745,505 C1009.68745,436.889762 996.337401,370.789299 970.006709,308.536466 Z M789.509822,789.509822 C713.513988,865.505657 612.473757,907.357857 505,907.357857 C397.526243,907.357857 296.484989,865.505657 220.489154,789.509822 C144.493319,713.513987 102.641119,612.472733 102.641119,505 C102.641119,397.527267 144.493319,296.484989 220.489154,220.490178 C296.484989,144.495367 397.52522,102.641119 505,102.641119 C612.47478,102.641119 713.515011,144.493319 789.509822,220.489154 C865.504633,296.484989 907.357857,397.52522 907.357857,504.998976 C907.357857,612.472732 865.505657,713.515011 789.509822,789.509822 Z" id="Shape"></path>
        </g>
    </g>
</svg>