<?xml version="1.0" encoding="UTF-8" standalone="no"?>
<svg width="27px" height="29px" viewBox="0 0 27 29" version="1.1" xmlns="http://www.w3.org/2000/svg" xmlns:xlink="http://www.w3.org/1999/xlink">
    <!-- Generator: Sketch 3.8.3 (29802) - http://www.bohemiancoding.com/sketch -->
    <title>Group 2 Copy 2</title>
    <desc>Created with Sketch.</desc>
    <defs>
        <path d="M2,30 L25,30 C25.504927,30 27,29.3689241 27,28 L27,13 C26.9999998,11.520888 26.1142939,10.6562608 25,10 L16.999615,10 C15.8952581,10 15.0636918,9.10608071 15.0827242,8.01196429 C15.0827242,8.01196429 15.5130159,5.46460157 14,3 C12.734128,1.68659531 12.1597849,1.47874475 12,1 C10.3056995,0.803265853 8.81970662,1.3639098 8,3 C8.81970662,2.43167652 9.20440458,7.84930131 8,10 C7.24726618,11.1073624 2,10 2,10 C0.88328499,10.6562608 0,11.520888 0,13 L0,28 C0,29.1365063 0.88328499,30 2,30 L2,30 Z" id="path-1"></path>
        <mask id="mask-2" maskContentUnits="userSpaceOnUse" maskUnits="objectBoundingBox" x="0" y="0" width="27" height="29.0376575" fill="white">
            <use xlink:href="#path-1"></use>
        </mask>
    </defs>
    <g id="8-10" stroke="none" stroke-width="1" fill="none" fill-rule="evenodd">
        <g id="首页" transform="translate(-670.000000, -1855.000000)">
            <g id="Group-2-Copy-2" transform="translate(670.000000, 1854.000000)">
                <use id="Combined-Shape" stroke="#BBBBBB" mask="url(#mask-2)" stroke-width="4" xlink:href="#path-1"></use>
                <rect id="Rectangle-50" fill="#BBBBBB" x="5" y="12" width="2" height="17"></rect>
            </g>
        </g>
    </g>
</svg>