<?xml version="1.0" encoding="UTF-8" standalone="no"?>
<svg width="44px" height="44px" viewBox="0 0 44 44" version="1.1" xmlns="http://www.w3.org/2000/svg" xmlns:xlink="http://www.w3.org/1999/xlink">
    <!-- Generator: Sketch 3.8.3 (29802) - http://www.bohemiancoding.com/sketch -->
    <title>Slice 1</title>
    <desc>Created with Sketch.</desc>
    <defs>
        <path d="M16,37 C16,40.3137085 18.9101491,43 22.5,43 L22.5,43 C26.0898509,43 29,40.3137085 29,37" id="path-1"></path>
        <mask id="mask-2" maskContentUnits="userSpaceOnUse" maskUnits="objectBoundingBox" x="0" y="0" width="13" height="6" fill="white">
            <use xlink:href="#path-1"></use>
        </mask>
        <path d="M7.57365866,25 C7.57365859,20.6157227 7.7986085,17.9837399 7.7986085,17.9837399 C8.18894799,10.2607336 14.7782789,4 22.5016833,4 L22.4607385,4 C30.1906829,4 36.7934138,10.2579687 37.1661841,17.9836552 C37.1661841,17.9836552 37.3887622,20.5 37.3887631,24.9907227 C37.388764,29.4814453 39.2063159,31.8917343 39.2063159,31.8917343 C39.7462368,32.8489905 39.4711132,34.1696058 38.5411897,34.772101 C38.5411897,34.772101 34.5895033,38.625 22.5935816,38.625 C10.5976599,38.625 6.41976819,34.7408743 6.41976819,34.7408743 C5.51331672,34.1245939 5.24005746,32.8496015 5.74826153,31.8804423 C5.74826153,31.8804423 7.57365873,29.3842773 7.57365866,25 Z" id="path-3"></path>
        <mask id="mask-4" maskContentUnits="userSpaceOnUse" maskUnits="objectBoundingBox" x="0" y="0" width="33.9856539" height="34.625" fill="white">
            <use xlink:href="#path-3"></use>
        </mask>
    </defs>
    <g id="Page-1" stroke="none" stroke-width="1" fill="none" fill-rule="evenodd">
        <g id="message">
            <polygon id="overlayer-copy-11" fill-opacity="0.01" fill="#FEEA0A" opacity="0.01" points="0 0 44 0 44 44 0 44"></polygon>
            <use id="Oval-81" stroke="#4E4E43" mask="url(#mask-2)" stroke-width="3.6" xlink:href="#path-1"></use>
            <use id="Rectangle-319" stroke="#4E4E43" mask="url(#mask-4)" stroke-width="3.6" xlink:href="#path-3"></use>
        </g>
    </g>
</svg>