<?xml version="1.0" encoding="utf-8"?>
<!-- Generator: Adobe Illustrator 16.0.0, SVG Export Plug-In . SVG Version: 6.00 Build 0)  -->
<!DOCTYPE svg PUBLIC "-//W3C//DTD SVG 1.1//EN" "http://www.w3.org/Graphics/SVG/1.1/DTD/svg11.dtd">
<svg version="1.1" id="图层_1" xmlns="http://www.w3.org/2000/svg" xmlns:xlink="http://www.w3.org/1999/xlink" x="0px" y="0px"
	 width="30px" height="30px" viewBox="0 0 30 30" enable-background="new 0 0 30 30" xml:space="preserve">
<g>
	
		<ellipse transform="matrix(0.943 -0.3329 0.3329 0.943 -4.3984 4.5204)" fill="#C13533" cx="10.994" cy="15.098" rx="1.612" ry="6.716"/>
	<g>
		<path fill="#C13533" d="M14.068,19.082l0.9-2.727l-0.529-0.174c-0.294,0.018-0.582,0.059-0.861,0.115
			c-0.305,0.064-0.6,0.15-0.882,0.256l-0.619,1.871L14.068,19.082z"/>
		<path fill="#8DA2D3" d="M17.854,21.4c-1.586-0.416-2.463-2.318-1.958-4.252c0.077-0.293,0.185-0.57,0.312-0.83
			c-0.436-0.098-0.891-0.152-1.361-0.152c-0.138,0-0.273,0.006-0.408,0.016l0.529,0.174l-0.9,2.727l-1.99-0.658l0.619-1.871
			c-1.919,0.721-3.263,2.377-3.263,4.305c0,2.59,2.423,4.691,5.414,4.691c2.99,0,5.414-2.102,5.414-4.691
			c0-0.012-0.002-0.023-0.002-0.037C19.553,21.377,18.688,21.617,17.854,21.4z"/>
		<path fill="#C13533" d="M16.435,16.371c-0.073-0.02-0.15-0.035-0.227-0.053c-0.128,0.26-0.235,0.537-0.312,0.83
			c-0.505,1.934,0.372,3.836,1.958,4.252c0.835,0.217,1.699-0.023,2.405-0.58C20.24,18.725,18.637,16.957,16.435,16.371z"/>
	</g>
	<g>
		<path fill="#F7DEC5" d="M17.143,12.159c0.127-0.807,1.002-1.355,2.04-1.335c-0.362-2.74-2.399-4.838-4.858-4.838
			c-2.715,0-4.916,2.558-4.916,5.714c0,3.156,2.201,5.716,4.916,5.716c1.981,0,3.688-1.367,4.467-3.33
			C17.734,13.816,17.012,12.997,17.143,12.159z"/>
		<path fill="#F7DEC5" d="M19.575,10.858c-0.132-0.021-0.264-0.03-0.393-0.034c0.037,0.286,0.059,0.578,0.059,0.876
			c0,0.852-0.162,1.66-0.45,2.386c0.088,0.023,0.177,0.042,0.27,0.058c1.201,0.188,2.195,0.457,2.433-1.302
			C21.731,11.083,20.777,11.046,19.575,10.858z"/>
		<path fill="#F7DEC5" d="M19.183,10.824c-1.038-0.021-1.913,0.528-2.04,1.335c-0.131,0.837,0.592,1.657,1.648,1.927
			c0.288-0.727,0.45-1.535,0.45-2.386C19.241,11.402,19.22,11.11,19.183,10.824z"/>
	</g>
	<path fill="#7A372B" d="M18.481,10.065c0,0-0.062,1.434-0.976,1.635c-0.915,0.2-0.411,0.699,0,0.854
		c0.41,0.153-0.159,0.728,0.499,0.614c0.659-0.115,1.709-3.102,1.709-3.102H18.481z"/>
	<path fill="#B59C8D" d="M10.282,21.055c0.634,1.344-0.06,3.959-1.341,3.959s-2.319-1.553-2.319-3.469s-0.658-3.098,2.319-3.471
		S11.467,19.312,10.282,21.055z"/>
	<path fill="#FFFFFF" d="M6.181,3.976c0,0,0.825-1.711,1.817-1.04c1.357-0.515,2.44,1.029,2.464,1.602
		c0.023,0.573,1.008,2.613,1.008,2.613s-0.76,2.23-2.286,2.463C7.66,9.849,6.439,9.098,6.975,8.439
		C5.919,8.19,3.224,5.324,6.181,3.976z"/>
	<path fill="#070405" d="M7.377,5.986c-0.235,0.573,2.591,1.826,4.607,1.826s6.784,1.444,6.784,1.444S8.126,4.16,7.377,5.986z"/>
	<path fill="#DD3A2F" d="M10.602,5.591c0,0-0.445-3.318,2.859-4.345c3.303-1.026,8.256,2.937,7.795,7.429
		c2.246,1.958,0.288,3.73,0.288,3.73s0.75,0.304-1.728-1.196c-2.477-1.498-0.115-2.592-3.571-3.945
		C12.791,5.911,10.602,5.591,10.602,5.591z"/>
	<ellipse fill="#FFFFFF" cx="14.145" cy="5.716" rx="1.352" ry="1.706"/>
	
		<ellipse transform="matrix(0.9503 0.3113 -0.3113 0.9503 3.3268 -3.1096)" fill="#484747" cx="11.406" cy="8.868" rx="0.605" ry="1.243"/>
	<path fill="#F7DEC5" d="M13.095,11.65c-0.017,0.921-2.314,1.16-2.314,1.16s-3.142,0.474-3.099-1.601
		c0.042-2.073,1.114-2.318,2.706-2.235C11.98,9.056,13.111,10.729,13.095,11.65z"/>
	<path opacity="0.53" fill="#EB6464" d="M11.582,14.361c0,0,0.345,2.204,2.188,2.088c1.842-0.115,0.822-3.282,0.555-3.282
		c-0.267,0-2.743,0.979-2.743,0.979"/>
	<path fill="#7A372B" d="M11.154,12.502c0,0,2.532,0.996,4.146-0.705c0.693,1.409-0.245,1.791-1.043,2.003
		c0.238,0.558-1.087,1.683-1.835,0.833c-0.231,0.819-1.844,0.677-1.728,0c-0.577,0.469-2.246,0.247-2.131-1.136
		C8.678,12.112,11.154,12.502,11.154,12.502z"/>
	<path fill="#C13533" d="M6.918,6.169C6.257,5.14,6.84,3.481,13.225,5.712c6.765,1.71,6.017,5.099,6.017,5.099
		c-3.341-0.292-4.611-3.949-8.534-4.034C8.067,6.72,7.363,6.861,6.918,6.169z"/>
	
		<ellipse transform="matrix(0.9502 0.3117 -0.3117 0.9502 3.7538 -3.8555)" fill="#484747" cx="13.936" cy="9.813" rx="0.605" ry="1.244"/>
	<ellipse fill="#FFFFFF" cx="10.675" cy="20.193" rx="0.73" ry="1.324"/>
	<ellipse fill="#FFFFFF" cx="13.523" cy="21.518" rx="0.73" ry="1.324"/>
	<path fill="#B59C8D" d="M16.384,25.623c-0.112,1.48,1.455,3.684,2.642,3.234c1.187-0.447,1.598-2.264,0.92-4.057
		c-0.677-1.793-0.486-3.127-3.374-2.434C13.684,23.059,14.671,24.408,16.384,25.623z"/>
	<path fill="#8DA2D3" d="M16.521,16.953c-0.461,0.891,1.728,1.062,2.649,2.59c0.921,1.527,2.13,2.506,2.13,2.506l1.671-1.727
		c0,0-0.754-2.244-3.258-3.369C17.213,15.83,16.521,16.953,16.521,16.953z"/>
	<path fill="#FFFFFF" d="M19.041,21.539c0,0-1.211-1.143,1.496-2.414c2.706-1.271,2.419,1.059,2.419,1.059s3.646,1.527,0.009,4.666
		c-2.081,1.674-2.922,0.164-3.158-0.438c-0.053-0.135-0.076-0.223-0.076-0.223s0-0.918,0.692-0.66
		c0.69,0.256-0.174,0.543-1.152,0.256C18.291,23.498,18.234,21.941,19.041,21.539z"/>
	<path fill="none" stroke="#7A372B" stroke-miterlimit="10" d="M20.161,12.108c0,0-1.104,0.729-0.229,1.389"/>
	<g>
		<path fill="#E7211A" d="M14.504,5l-0.005-0.002c-0.065,0.121-0.146,0.256-0.208,0.355l-0.191,0.313L13.896,5.61l0.012-0.362
			c0.003-0.112,0.013-0.265,0.027-0.404l-0.003-0.002C13.889,4.979,13.6,5.48,13.6,5.48l-0.24-0.066l0.426-0.863l0.352,0.096
			L14.13,4.929c-0.002,0.115-0.009,0.254-0.021,0.377l0.004,0.002c0.06-0.112,0.13-0.241,0.187-0.335l0.146-0.241l0.344,0.095
			l-0.121,0.99l-0.254-0.07C14.414,5.747,14.461,5.152,14.504,5z"/>
	</g>
</g>
</svg>
