<?xml version="1.0" encoding="utf-8"?>
<!-- Generator: Adobe Illustrator 16.0.0, SVG Export Plug-In . SVG Version: 6.00 Build 0)  -->
<!DOCTYPE svg PUBLIC "-//W3C//DTD SVG 1.1//EN" "http://www.w3.org/Graphics/SVG/1.1/DTD/svg11.dtd">
<svg version="1.1" id="图层_1" xmlns="http://www.w3.org/2000/svg" xmlns:xlink="http://www.w3.org/1999/xlink" x="0px" y="0px"
	 width="30px" height="30px" viewBox="0 0 30 30" enable-background="new 0 0 30 30" xml:space="preserve">
<g>
	<path fill="#999999" d="M29.071,14.687c0,1.431-0.979,2.593-2.187,2.593H3.116c-1.208,0-2.187-1.162-2.187-2.593l0,0
		c0-1.431,0.979-2.592,2.187-2.592l11.953-2.198l11.816,2.198C28.092,12.095,29.071,13.255,29.071,14.687L29.071,14.687z"/>
	<path opacity="0.49" fill="#FFFFFF" d="M22.32,4.529c0,0.222-6.944,0.402-6.944,0.402s-6.944-0.18-6.944-0.402
		c0-0.222,3.109-0.402,6.944-0.402C19.212,4.127,22.32,4.307,22.32,4.529z"/>
	<path fill="#1A62AE" d="M19.312,24.887c0,0.596-0.257,1.078-0.574,1.078h-6.724c-0.317,0-0.574-0.482-0.574-1.078l0,0
		c0-0.594,0.257-1.076,0.574-1.076h6.724C19.056,23.811,19.312,24.293,19.312,24.887L19.312,24.887z"/>
	<path fill="#CCCCCC" d="M3.116,13.464l11.953-1.748l11.816,1.748c0.93,0,1.721,0.547,2.038,1.318
		c0.095-0.23,0.148-0.48,0.148-0.743c0-1.139-0.979-2.062-2.187-2.062l-11.816-1.748L3.116,11.978c-1.208,0-2.187,0.923-2.187,2.062
		c0,0.263,0.054,0.513,0.149,0.743C1.395,14.012,2.187,13.464,3.116,13.464z"/>
	<path fill="#3E4FA0" d="M18.768,23.811h-3.362v2.154h3.362c0.316,0,0.574-0.482,0.574-1.078
		C19.342,24.293,19.084,23.811,18.768,23.811z"/>
	<path fill="#3562AD" d="M18.958,15.692c0,5.945-1.604,10.761-3.582,10.761c-1.978,0-3.582-4.816-3.582-10.761
		c0-5.942-0.804-10.688,3.582-10.761C19.763,4.858,18.958,9.75,18.958,15.692z"/>
	<path fill="#3E4FA0" d="M15.496,4.931c-4.386,0.073-3.582,4.818-3.582,10.761c0,5.943,1.604,10.761,3.582,10.761V4.931z"/>
</g>
</svg>
