<?xml version="1.0" encoding="UTF-8" standalone="no"?>
<svg width="34px" height="36px" viewBox="0 0 34 36" version="1.1" xmlns="http://www.w3.org/2000/svg" xmlns:xlink="http://www.w3.org/1999/xlink">
    <!-- Generator: Sketch 39.1 (31720) - http://www.bohemiancoding.com/sketch -->
    <title>Group 4</title>
    <desc>Created with Sketch.</desc>
    <defs>
        <path d="M27,29 L23.9953976,29 C23.4556644,29 23,29.4477153 23,30 C23,30.5561352 23.4456547,31 23.9953976,31 L27,31 L27,34.0046024 C27,34.5443356 27.4477153,35 28,35 C28.5561352,35 29,34.5543453 29,34.0046024 L29,31 L32.0046024,31 C32.5443356,31 33,30.5522847 33,30 C33,29.4438648 32.5543453,29 32.0046024,29 L29,29 L29,25.9953976 C29,25.4556644 28.5522847,25 28,25 C27.4438648,25 27,25.4456547 27,25.9953976 L27,29 Z" id="path-1"></path>
        <mask id="mask-2" maskContentUnits="userSpaceOnUse" maskUnits="objectBoundingBox" x="0" y="0" width="10" height="10" fill="white">
            <use xlink:href="#path-1"></use>
        </mask>
    </defs>
    <g id="9-7" stroke="none" stroke-width="1" fill="none" fill-rule="evenodd">
        <g id="写经验-已填" transform="translate(-52.000000, -1255.000000)" stroke="#ffffff">
            <g id="Group-5" transform="translate(50.000000, 1256.000000)">
                <g id="Group-4" transform="translate(3.000000, 0.000000)">
                    <path d="M30.0991189,4.1938326 L16.5660793,4.1938326 C16.0726872,2.60792952 15.5792952,1.19823789 15.0154185,0 L13.746696,0.246696035 C14.3105727,1.37444934 14.839207,2.71365639 15.2973568,4.1938326 L0.848017621,4.1938326 L0.848017621,11.3832599 L2.04625551,11.3832599 L2.04625551,5.39207048 L28.9008811,5.39207048 L28.9008811,11.3832599 L30.0991189,11.3832599 L30.0991189,4.1938326 Z M6.13436123,10.2555066 L6.13436123,11.3832599 L22.7687225,11.3832599 C21.4295154,12.3700441 18.9625551,13.814978 15.3325991,15.7180617 L15.3325991,19.7356828 L0.0726872247,19.7356828 L0.0726872247,20.8986784 L15.3325991,20.8986784 L15.3325991,29.3215859 C15.3325991,30.3436123 14.7687225,30.8722467 13.7114537,30.8722467 C12.1960352,30.8722467 10.8215859,30.8370044 9.55286344,30.8370044 L9.83480176,32 L14.1696035,32 C15.7202643,32 16.4955947,31.2246696 16.4955947,29.7444934 L16.4955947,20.8986784 L30.9096916,20.8986784 L30.9096916,19.7356828 L16.4955947,19.7356828 L16.4955947,16.3171806 C19.5264317,14.7312775 22.2753304,13.0748899 24.6718062,11.3832599 L24.6718062,10.2555066 L6.13436123,10.2555066 Z" id="字" fill="#ffffff"></path>
                    <use id="Combined-Shape" mask="url(#mask-2)" stroke-width="2" xlink:href="#path-1"></use>
                </g>
            </g>
        </g>
    </g>
</svg>